G75*
%MOIN*%
%OFA0B0*%
%FSLAX25Y25*%
%IPPOS*%
%LPD*%
%AMOC8*
5,1,8,0,0,1.08239X$1,22.5*
%
%ADD10R,0.04724X0.04724*%
%ADD11R,0.06299X0.15748*%
%ADD12R,0.03937X0.04331*%
%ADD13R,0.05906X0.05118*%
%ADD14R,0.04331X0.03937*%
%ADD15R,0.07800X0.02200*%
%ADD16R,0.08504X0.07008*%
%ADD17C,0.00276*%
%ADD18R,0.02687X0.01280*%
%ADD19R,0.13665X0.13665*%
%ADD20R,0.12000X0.05000*%
%ADD21R,0.04724X0.05512*%
%ADD22R,0.02402X0.12008*%
%ADD23R,0.09843X0.15354*%
%ADD24R,0.04921X0.15748*%
%ADD25R,0.06400X0.03500*%
%ADD26R,0.06400X0.12500*%
%ADD27R,0.02520X0.07520*%
D10*
X0244552Y0021297D03*
X0244552Y0031533D03*
X0244552Y0043383D03*
X0244552Y0053619D03*
X0268567Y0053619D03*
X0268567Y0043383D03*
X0268567Y0031533D03*
X0268567Y0021297D03*
D11*
X0099552Y0072163D03*
X0099552Y0100115D03*
D12*
X0080497Y0019840D03*
X0080497Y0026533D03*
X0087623Y0041100D03*
X0094315Y0041100D03*
X0094237Y0049210D03*
X0087544Y0049210D03*
X0087504Y0057281D03*
X0094197Y0057281D03*
X0114158Y0064958D03*
X0120851Y0064958D03*
X0123607Y0079289D03*
X0123607Y0085982D03*
X0124630Y0098265D03*
X0124630Y0104958D03*
X0256245Y0101887D03*
X0262937Y0101887D03*
X0269473Y0101178D03*
X0269473Y0094486D03*
D13*
X0088567Y0027320D03*
X0088567Y0019840D03*
D14*
X0253961Y0065706D03*
X0260654Y0065706D03*
X0292977Y0054643D03*
X0299670Y0054643D03*
X0260772Y0090706D03*
X0254079Y0090706D03*
X0277465Y0094486D03*
X0285536Y0094486D03*
X0285536Y0101178D03*
X0277465Y0101178D03*
X0305969Y0101100D03*
X0314079Y0101178D03*
X0322150Y0101178D03*
X0322150Y0094486D03*
X0314079Y0094486D03*
X0305969Y0094407D03*
X0314788Y0108029D03*
X0321481Y0108029D03*
D15*
X0076141Y0065371D03*
X0076141Y0060371D03*
X0076141Y0055371D03*
X0076141Y0050371D03*
X0056741Y0050371D03*
X0056741Y0055371D03*
X0056741Y0060371D03*
X0056741Y0065371D03*
D16*
X0058174Y0083738D03*
X0058174Y0099761D03*
D17*
X0279493Y0082556D02*
X0282917Y0082556D01*
X0282917Y0081454D01*
X0279493Y0081454D01*
X0279493Y0082556D01*
X0279493Y0081729D02*
X0282917Y0081729D01*
X0282917Y0082004D02*
X0279493Y0082004D01*
X0279493Y0082279D02*
X0282917Y0082279D01*
X0282917Y0082554D02*
X0279493Y0082554D01*
X0279493Y0079997D02*
X0282917Y0079997D01*
X0282917Y0078895D01*
X0279493Y0078895D01*
X0279493Y0079997D01*
X0279493Y0079170D02*
X0282917Y0079170D01*
X0282917Y0079445D02*
X0279493Y0079445D01*
X0279493Y0079720D02*
X0282917Y0079720D01*
X0282917Y0079995D02*
X0279493Y0079995D01*
X0279493Y0077438D02*
X0282917Y0077438D01*
X0282917Y0076336D01*
X0279493Y0076336D01*
X0279493Y0077438D01*
X0279493Y0076611D02*
X0282917Y0076611D01*
X0282917Y0076886D02*
X0279493Y0076886D01*
X0279493Y0077161D02*
X0282917Y0077161D01*
X0282917Y0077436D02*
X0279493Y0077436D01*
X0279493Y0074879D02*
X0282917Y0074879D01*
X0282917Y0073777D01*
X0279493Y0073777D01*
X0279493Y0074879D01*
X0279493Y0074052D02*
X0282917Y0074052D01*
X0282917Y0074327D02*
X0279493Y0074327D01*
X0279493Y0074602D02*
X0282917Y0074602D01*
X0282917Y0074877D02*
X0279493Y0074877D01*
X0279493Y0072320D02*
X0282917Y0072320D01*
X0282917Y0071218D01*
X0279493Y0071218D01*
X0279493Y0072320D01*
X0279493Y0071493D02*
X0282917Y0071493D01*
X0282917Y0071768D02*
X0279493Y0071768D01*
X0279493Y0072043D02*
X0282917Y0072043D01*
X0282917Y0072318D02*
X0279493Y0072318D01*
X0279493Y0069761D02*
X0282917Y0069761D01*
X0282917Y0068659D01*
X0279493Y0068659D01*
X0279493Y0069761D01*
X0279493Y0068934D02*
X0282917Y0068934D01*
X0282917Y0069209D02*
X0279493Y0069209D01*
X0279493Y0069484D02*
X0282917Y0069484D01*
X0282917Y0069759D02*
X0279493Y0069759D01*
X0279493Y0067202D02*
X0282917Y0067202D01*
X0282917Y0066100D01*
X0279493Y0066100D01*
X0279493Y0067202D01*
X0279493Y0066375D02*
X0282917Y0066375D01*
X0282917Y0066650D02*
X0279493Y0066650D01*
X0279493Y0066925D02*
X0282917Y0066925D01*
X0282917Y0067200D02*
X0279493Y0067200D01*
X0283607Y0065410D02*
X0284709Y0065410D01*
X0284709Y0061986D01*
X0283607Y0061986D01*
X0283607Y0065410D01*
X0283607Y0062261D02*
X0284709Y0062261D01*
X0284709Y0062536D02*
X0283607Y0062536D01*
X0283607Y0062811D02*
X0284709Y0062811D01*
X0284709Y0063086D02*
X0283607Y0063086D01*
X0283607Y0063361D02*
X0284709Y0063361D01*
X0284709Y0063636D02*
X0283607Y0063636D01*
X0283607Y0063911D02*
X0284709Y0063911D01*
X0284709Y0064186D02*
X0283607Y0064186D01*
X0283607Y0064461D02*
X0284709Y0064461D01*
X0284709Y0064736D02*
X0283607Y0064736D01*
X0283607Y0065011D02*
X0284709Y0065011D01*
X0284709Y0065286D02*
X0283607Y0065286D01*
X0286166Y0065410D02*
X0287268Y0065410D01*
X0287268Y0061986D01*
X0286166Y0061986D01*
X0286166Y0065410D01*
X0286166Y0062261D02*
X0287268Y0062261D01*
X0287268Y0062536D02*
X0286166Y0062536D01*
X0286166Y0062811D02*
X0287268Y0062811D01*
X0287268Y0063086D02*
X0286166Y0063086D01*
X0286166Y0063361D02*
X0287268Y0063361D01*
X0287268Y0063636D02*
X0286166Y0063636D01*
X0286166Y0063911D02*
X0287268Y0063911D01*
X0287268Y0064186D02*
X0286166Y0064186D01*
X0286166Y0064461D02*
X0287268Y0064461D01*
X0287268Y0064736D02*
X0286166Y0064736D01*
X0286166Y0065011D02*
X0287268Y0065011D01*
X0287268Y0065286D02*
X0286166Y0065286D01*
X0288725Y0065410D02*
X0289827Y0065410D01*
X0289827Y0061986D01*
X0288725Y0061986D01*
X0288725Y0065410D01*
X0288725Y0062261D02*
X0289827Y0062261D01*
X0289827Y0062536D02*
X0288725Y0062536D01*
X0288725Y0062811D02*
X0289827Y0062811D01*
X0289827Y0063086D02*
X0288725Y0063086D01*
X0288725Y0063361D02*
X0289827Y0063361D01*
X0289827Y0063636D02*
X0288725Y0063636D01*
X0288725Y0063911D02*
X0289827Y0063911D01*
X0289827Y0064186D02*
X0288725Y0064186D01*
X0288725Y0064461D02*
X0289827Y0064461D01*
X0289827Y0064736D02*
X0288725Y0064736D01*
X0288725Y0065011D02*
X0289827Y0065011D01*
X0289827Y0065286D02*
X0288725Y0065286D01*
X0291284Y0065410D02*
X0292386Y0065410D01*
X0292386Y0061986D01*
X0291284Y0061986D01*
X0291284Y0065410D01*
X0291284Y0062261D02*
X0292386Y0062261D01*
X0292386Y0062536D02*
X0291284Y0062536D01*
X0291284Y0062811D02*
X0292386Y0062811D01*
X0292386Y0063086D02*
X0291284Y0063086D01*
X0291284Y0063361D02*
X0292386Y0063361D01*
X0292386Y0063636D02*
X0291284Y0063636D01*
X0291284Y0063911D02*
X0292386Y0063911D01*
X0292386Y0064186D02*
X0291284Y0064186D01*
X0291284Y0064461D02*
X0292386Y0064461D01*
X0292386Y0064736D02*
X0291284Y0064736D01*
X0291284Y0065011D02*
X0292386Y0065011D01*
X0292386Y0065286D02*
X0291284Y0065286D01*
X0293843Y0065410D02*
X0294945Y0065410D01*
X0294945Y0061986D01*
X0293843Y0061986D01*
X0293843Y0065410D01*
X0293843Y0062261D02*
X0294945Y0062261D01*
X0294945Y0062536D02*
X0293843Y0062536D01*
X0293843Y0062811D02*
X0294945Y0062811D01*
X0294945Y0063086D02*
X0293843Y0063086D01*
X0293843Y0063361D02*
X0294945Y0063361D01*
X0294945Y0063636D02*
X0293843Y0063636D01*
X0293843Y0063911D02*
X0294945Y0063911D01*
X0294945Y0064186D02*
X0293843Y0064186D01*
X0293843Y0064461D02*
X0294945Y0064461D01*
X0294945Y0064736D02*
X0293843Y0064736D01*
X0293843Y0065011D02*
X0294945Y0065011D01*
X0294945Y0065286D02*
X0293843Y0065286D01*
X0296402Y0065410D02*
X0297504Y0065410D01*
X0297504Y0061986D01*
X0296402Y0061986D01*
X0296402Y0065410D01*
X0296402Y0062261D02*
X0297504Y0062261D01*
X0297504Y0062536D02*
X0296402Y0062536D01*
X0296402Y0062811D02*
X0297504Y0062811D01*
X0297504Y0063086D02*
X0296402Y0063086D01*
X0296402Y0063361D02*
X0297504Y0063361D01*
X0297504Y0063636D02*
X0296402Y0063636D01*
X0296402Y0063911D02*
X0297504Y0063911D01*
X0297504Y0064186D02*
X0296402Y0064186D01*
X0296402Y0064461D02*
X0297504Y0064461D01*
X0297504Y0064736D02*
X0296402Y0064736D01*
X0296402Y0065011D02*
X0297504Y0065011D01*
X0297504Y0065286D02*
X0296402Y0065286D01*
X0298961Y0065410D02*
X0300063Y0065410D01*
X0300063Y0061986D01*
X0298961Y0061986D01*
X0298961Y0065410D01*
X0298961Y0062261D02*
X0300063Y0062261D01*
X0300063Y0062536D02*
X0298961Y0062536D01*
X0298961Y0062811D02*
X0300063Y0062811D01*
X0300063Y0063086D02*
X0298961Y0063086D01*
X0298961Y0063361D02*
X0300063Y0063361D01*
X0300063Y0063636D02*
X0298961Y0063636D01*
X0298961Y0063911D02*
X0300063Y0063911D01*
X0300063Y0064186D02*
X0298961Y0064186D01*
X0298961Y0064461D02*
X0300063Y0064461D01*
X0300063Y0064736D02*
X0298961Y0064736D01*
X0298961Y0065011D02*
X0300063Y0065011D01*
X0300063Y0065286D02*
X0298961Y0065286D01*
X0300753Y0067202D02*
X0304177Y0067202D01*
X0304177Y0066100D01*
X0300753Y0066100D01*
X0300753Y0067202D01*
X0300753Y0066375D02*
X0304177Y0066375D01*
X0304177Y0066650D02*
X0300753Y0066650D01*
X0300753Y0066925D02*
X0304177Y0066925D01*
X0304177Y0067200D02*
X0300753Y0067200D01*
X0300753Y0069761D02*
X0304177Y0069761D01*
X0304177Y0068659D01*
X0300753Y0068659D01*
X0300753Y0069761D01*
X0300753Y0068934D02*
X0304177Y0068934D01*
X0304177Y0069209D02*
X0300753Y0069209D01*
X0300753Y0069484D02*
X0304177Y0069484D01*
X0304177Y0069759D02*
X0300753Y0069759D01*
X0300753Y0072320D02*
X0304177Y0072320D01*
X0304177Y0071218D01*
X0300753Y0071218D01*
X0300753Y0072320D01*
X0300753Y0071493D02*
X0304177Y0071493D01*
X0304177Y0071768D02*
X0300753Y0071768D01*
X0300753Y0072043D02*
X0304177Y0072043D01*
X0304177Y0072318D02*
X0300753Y0072318D01*
X0300753Y0074879D02*
X0304177Y0074879D01*
X0304177Y0073777D01*
X0300753Y0073777D01*
X0300753Y0074879D01*
X0300753Y0074052D02*
X0304177Y0074052D01*
X0304177Y0074327D02*
X0300753Y0074327D01*
X0300753Y0074602D02*
X0304177Y0074602D01*
X0304177Y0074877D02*
X0300753Y0074877D01*
X0300753Y0077438D02*
X0304177Y0077438D01*
X0304177Y0076336D01*
X0300753Y0076336D01*
X0300753Y0077438D01*
X0300753Y0076611D02*
X0304177Y0076611D01*
X0304177Y0076886D02*
X0300753Y0076886D01*
X0300753Y0077161D02*
X0304177Y0077161D01*
X0304177Y0077436D02*
X0300753Y0077436D01*
X0300753Y0079997D02*
X0304177Y0079997D01*
X0304177Y0078895D01*
X0300753Y0078895D01*
X0300753Y0079997D01*
X0300753Y0079170D02*
X0304177Y0079170D01*
X0304177Y0079445D02*
X0300753Y0079445D01*
X0300753Y0079720D02*
X0304177Y0079720D01*
X0304177Y0079995D02*
X0300753Y0079995D01*
X0300753Y0082556D02*
X0304177Y0082556D01*
X0304177Y0081454D01*
X0300753Y0081454D01*
X0300753Y0082556D01*
X0300753Y0081729D02*
X0304177Y0081729D01*
X0304177Y0082004D02*
X0300753Y0082004D01*
X0300753Y0082279D02*
X0304177Y0082279D01*
X0304177Y0082554D02*
X0300753Y0082554D01*
X0300063Y0086670D02*
X0298961Y0086670D01*
X0300063Y0086670D02*
X0300063Y0083246D01*
X0298961Y0083246D01*
X0298961Y0086670D01*
X0298961Y0083521D02*
X0300063Y0083521D01*
X0300063Y0083796D02*
X0298961Y0083796D01*
X0298961Y0084071D02*
X0300063Y0084071D01*
X0300063Y0084346D02*
X0298961Y0084346D01*
X0298961Y0084621D02*
X0300063Y0084621D01*
X0300063Y0084896D02*
X0298961Y0084896D01*
X0298961Y0085171D02*
X0300063Y0085171D01*
X0300063Y0085446D02*
X0298961Y0085446D01*
X0298961Y0085721D02*
X0300063Y0085721D01*
X0300063Y0085996D02*
X0298961Y0085996D01*
X0298961Y0086271D02*
X0300063Y0086271D01*
X0300063Y0086546D02*
X0298961Y0086546D01*
X0297504Y0086670D02*
X0296402Y0086670D01*
X0297504Y0086670D02*
X0297504Y0083246D01*
X0296402Y0083246D01*
X0296402Y0086670D01*
X0296402Y0083521D02*
X0297504Y0083521D01*
X0297504Y0083796D02*
X0296402Y0083796D01*
X0296402Y0084071D02*
X0297504Y0084071D01*
X0297504Y0084346D02*
X0296402Y0084346D01*
X0296402Y0084621D02*
X0297504Y0084621D01*
X0297504Y0084896D02*
X0296402Y0084896D01*
X0296402Y0085171D02*
X0297504Y0085171D01*
X0297504Y0085446D02*
X0296402Y0085446D01*
X0296402Y0085721D02*
X0297504Y0085721D01*
X0297504Y0085996D02*
X0296402Y0085996D01*
X0296402Y0086271D02*
X0297504Y0086271D01*
X0297504Y0086546D02*
X0296402Y0086546D01*
X0294945Y0086670D02*
X0293843Y0086670D01*
X0294945Y0086670D02*
X0294945Y0083246D01*
X0293843Y0083246D01*
X0293843Y0086670D01*
X0293843Y0083521D02*
X0294945Y0083521D01*
X0294945Y0083796D02*
X0293843Y0083796D01*
X0293843Y0084071D02*
X0294945Y0084071D01*
X0294945Y0084346D02*
X0293843Y0084346D01*
X0293843Y0084621D02*
X0294945Y0084621D01*
X0294945Y0084896D02*
X0293843Y0084896D01*
X0293843Y0085171D02*
X0294945Y0085171D01*
X0294945Y0085446D02*
X0293843Y0085446D01*
X0293843Y0085721D02*
X0294945Y0085721D01*
X0294945Y0085996D02*
X0293843Y0085996D01*
X0293843Y0086271D02*
X0294945Y0086271D01*
X0294945Y0086546D02*
X0293843Y0086546D01*
X0292386Y0086670D02*
X0291284Y0086670D01*
X0292386Y0086670D02*
X0292386Y0083246D01*
X0291284Y0083246D01*
X0291284Y0086670D01*
X0291284Y0083521D02*
X0292386Y0083521D01*
X0292386Y0083796D02*
X0291284Y0083796D01*
X0291284Y0084071D02*
X0292386Y0084071D01*
X0292386Y0084346D02*
X0291284Y0084346D01*
X0291284Y0084621D02*
X0292386Y0084621D01*
X0292386Y0084896D02*
X0291284Y0084896D01*
X0291284Y0085171D02*
X0292386Y0085171D01*
X0292386Y0085446D02*
X0291284Y0085446D01*
X0291284Y0085721D02*
X0292386Y0085721D01*
X0292386Y0085996D02*
X0291284Y0085996D01*
X0291284Y0086271D02*
X0292386Y0086271D01*
X0292386Y0086546D02*
X0291284Y0086546D01*
X0289827Y0086670D02*
X0288725Y0086670D01*
X0289827Y0086670D02*
X0289827Y0083246D01*
X0288725Y0083246D01*
X0288725Y0086670D01*
X0288725Y0083521D02*
X0289827Y0083521D01*
X0289827Y0083796D02*
X0288725Y0083796D01*
X0288725Y0084071D02*
X0289827Y0084071D01*
X0289827Y0084346D02*
X0288725Y0084346D01*
X0288725Y0084621D02*
X0289827Y0084621D01*
X0289827Y0084896D02*
X0288725Y0084896D01*
X0288725Y0085171D02*
X0289827Y0085171D01*
X0289827Y0085446D02*
X0288725Y0085446D01*
X0288725Y0085721D02*
X0289827Y0085721D01*
X0289827Y0085996D02*
X0288725Y0085996D01*
X0288725Y0086271D02*
X0289827Y0086271D01*
X0289827Y0086546D02*
X0288725Y0086546D01*
X0287268Y0086670D02*
X0286166Y0086670D01*
X0287268Y0086670D02*
X0287268Y0083246D01*
X0286166Y0083246D01*
X0286166Y0086670D01*
X0286166Y0083521D02*
X0287268Y0083521D01*
X0287268Y0083796D02*
X0286166Y0083796D01*
X0286166Y0084071D02*
X0287268Y0084071D01*
X0287268Y0084346D02*
X0286166Y0084346D01*
X0286166Y0084621D02*
X0287268Y0084621D01*
X0287268Y0084896D02*
X0286166Y0084896D01*
X0286166Y0085171D02*
X0287268Y0085171D01*
X0287268Y0085446D02*
X0286166Y0085446D01*
X0286166Y0085721D02*
X0287268Y0085721D01*
X0287268Y0085996D02*
X0286166Y0085996D01*
X0286166Y0086271D02*
X0287268Y0086271D01*
X0287268Y0086546D02*
X0286166Y0086546D01*
X0284709Y0086670D02*
X0283607Y0086670D01*
X0284709Y0086670D02*
X0284709Y0083246D01*
X0283607Y0083246D01*
X0283607Y0086670D01*
X0283607Y0083521D02*
X0284709Y0083521D01*
X0284709Y0083796D02*
X0283607Y0083796D01*
X0283607Y0084071D02*
X0284709Y0084071D01*
X0284709Y0084346D02*
X0283607Y0084346D01*
X0283607Y0084621D02*
X0284709Y0084621D01*
X0284709Y0084896D02*
X0283607Y0084896D01*
X0283607Y0085171D02*
X0284709Y0085171D01*
X0284709Y0085446D02*
X0283607Y0085446D01*
X0283607Y0085721D02*
X0284709Y0085721D01*
X0284709Y0085996D02*
X0283607Y0085996D01*
X0283607Y0086271D02*
X0284709Y0086271D01*
X0284709Y0086546D02*
X0283607Y0086546D01*
D18*
X0302468Y0069210D03*
D19*
X0291835Y0074328D03*
D20*
X0074394Y0083230D03*
X0074394Y0100230D03*
D21*
X0254079Y0082360D03*
X0260378Y0082360D03*
X0260378Y0073698D03*
X0254079Y0073698D03*
D22*
X0331678Y0065903D03*
X0335693Y0065903D03*
X0339815Y0065903D03*
X0343760Y0065903D03*
X0347705Y0065903D03*
X0351756Y0065903D03*
X0355772Y0065903D03*
X0359788Y0065903D03*
D23*
X0379827Y0026572D03*
X0311638Y0026572D03*
D24*
X0229394Y0026848D03*
X0219394Y0026848D03*
X0149394Y0026848D03*
X0139394Y0026848D03*
X0139394Y0097714D03*
X0149394Y0097714D03*
X0219394Y0097714D03*
X0229394Y0097714D03*
D25*
X0122191Y0037916D03*
X0122191Y0028816D03*
X0122191Y0019716D03*
D26*
X0096991Y0028816D03*
D27*
X0340123Y0082419D03*
X0345123Y0082419D03*
X0350123Y0082419D03*
X0355123Y0082419D03*
X0360123Y0082419D03*
X0365123Y0082419D03*
X0370123Y0082419D03*
X0375123Y0082419D03*
X0375123Y0116946D03*
X0370123Y0116946D03*
X0365123Y0116946D03*
X0360123Y0116946D03*
X0355123Y0116946D03*
X0350123Y0116946D03*
X0345123Y0116946D03*
X0340123Y0116946D03*
M02*
