G75*
%MOIN*%
%OFA0B0*%
%FSLAX25Y25*%
%IPPOS*%
%LPD*%
%AMOC8*
5,1,8,0,0,1.08239X$1,22.5*
%
%ADD10R,0.07800X0.07800*%
%ADD11C,0.07800*%
%ADD12C,0.11627*%
%ADD13C,0.13595*%
%ADD14R,0.04737X0.05131*%
%ADD15C,0.04369*%
D10*
X0083489Y0114367D03*
D11*
X0093489Y0114367D03*
X0103489Y0114367D03*
X0113489Y0114367D03*
X0123489Y0114367D03*
X0133489Y0114367D03*
X0143489Y0114367D03*
X0153489Y0114367D03*
X0163489Y0114367D03*
X0173489Y0114367D03*
X0183489Y0114367D03*
X0193489Y0114367D03*
X0203489Y0114367D03*
X0213489Y0114367D03*
X0223489Y0114367D03*
X0233489Y0114367D03*
X0243489Y0114367D03*
X0253489Y0114367D03*
X0263489Y0114367D03*
X0273489Y0114367D03*
X0273489Y0124367D03*
X0263489Y0124367D03*
X0253489Y0124367D03*
X0243489Y0124367D03*
X0233489Y0124367D03*
X0223489Y0124367D03*
X0213489Y0124367D03*
X0203489Y0124367D03*
X0193489Y0124367D03*
X0183489Y0124367D03*
X0173489Y0124367D03*
X0163489Y0124367D03*
X0153489Y0124367D03*
X0143489Y0124367D03*
X0133489Y0124367D03*
X0123489Y0124367D03*
X0113489Y0124367D03*
X0103489Y0124367D03*
X0093489Y0124367D03*
X0083489Y0124367D03*
D12*
X0064315Y0028816D03*
X0064315Y0119367D03*
X0292662Y0119367D03*
X0292662Y0028816D03*
D13*
X0320733Y0026612D03*
X0370733Y0026612D03*
D14*
X0287741Y0093777D03*
X0281048Y0093777D03*
X0281048Y0093777D03*
X0274355Y0093777D03*
X0094434Y0056966D03*
X0087741Y0056966D03*
D15*
X0083016Y0058344D03*
X0083016Y0053226D03*
X0083016Y0048501D03*
X0064315Y0044564D03*
X0054473Y0044564D03*
X0089906Y0066218D03*
X0084000Y0072123D03*
X0084000Y0083934D03*
X0099749Y0083934D03*
X0124355Y0092005D03*
X0158804Y0089840D03*
X0166678Y0089840D03*
X0190103Y0095942D03*
X0192268Y0099682D03*
X0197977Y0103816D03*
X0208016Y0095745D03*
X0204079Y0091808D03*
X0198371Y0091612D03*
X0218646Y0109525D03*
X0218646Y0119367D03*
X0245418Y0095745D03*
X0271402Y0079604D03*
X0286953Y0079210D03*
X0296796Y0079210D03*
X0307623Y0084525D03*
X0313528Y0079997D03*
X0308804Y0077438D03*
X0312347Y0074092D03*
X0310378Y0065627D03*
X0306835Y0058344D03*
X0302504Y0059131D03*
X0285772Y0054604D03*
X0278882Y0046533D03*
X0274945Y0042596D03*
X0271008Y0062281D03*
X0286953Y0069564D03*
X0296796Y0069564D03*
X0298567Y0095155D03*
X0292268Y0104013D03*
X0312347Y0115430D03*
X0322189Y0117399D03*
X0324158Y0125273D03*
X0340103Y0123304D03*
X0345221Y0123304D03*
X0350142Y0123304D03*
X0345024Y0075273D03*
X0363528Y0072123D03*
X0363528Y0064249D03*
X0377308Y0074092D03*
X0237544Y0034722D03*
X0227701Y0042596D03*
X0211953Y0034722D03*
X0190300Y0034722D03*
X0178489Y0034722D03*
X0178489Y0020942D03*
X0190300Y0020942D03*
X0211953Y0020942D03*
X0156835Y0020942D03*
X0156835Y0034722D03*
X0113528Y0022911D03*
X0105654Y0022911D03*
X0075339Y0018974D03*
X0107623Y0066218D03*
X0064315Y0070155D03*
X0054473Y0070155D03*
X0054473Y0091808D03*
X0054473Y0107556D03*
X0158804Y0107556D03*
X0166678Y0107556D03*
M02*
