G75*
%MOIN*%
%OFA0B0*%
%FSLAX25Y25*%
%IPPOS*%
%LPD*%
%AMOC8*
5,1,8,0,0,1.08239X$1,22.5*
%
%ADD10C,0.00800*%
%ADD11C,0.00400*%
%ADD12R,0.01181X0.16142*%
%ADD13C,0.00600*%
%ADD14C,0.00300*%
%ADD15C,0.00500*%
D10*
X0248686Y0017163D02*
X0264434Y0017163D01*
X0264434Y0035667D01*
X0248686Y0035667D01*
X0248686Y0017163D01*
X0248686Y0039249D02*
X0264434Y0039249D01*
X0264434Y0057753D01*
X0248686Y0057753D01*
X0248686Y0039249D01*
X0300575Y0062911D02*
X0303246Y0065582D01*
X0303246Y0062917D01*
X0300575Y0062917D01*
X0300575Y0062911D01*
D11*
X0261579Y0054702D02*
X0261539Y0054666D01*
X0261502Y0054628D01*
X0261467Y0054586D01*
X0261436Y0054543D01*
X0261407Y0054497D01*
X0261382Y0054450D01*
X0261360Y0054401D01*
X0261342Y0054350D01*
X0261327Y0054298D01*
X0261316Y0054246D01*
X0261308Y0054193D01*
X0261304Y0054139D01*
X0261304Y0054085D01*
X0261308Y0054031D01*
X0261316Y0053978D01*
X0261327Y0053926D01*
X0261342Y0053874D01*
X0261360Y0053823D01*
X0261382Y0053774D01*
X0261407Y0053727D01*
X0261436Y0053681D01*
X0261467Y0053638D01*
X0261502Y0053596D01*
X0261539Y0053558D01*
X0261579Y0053522D01*
X0261579Y0054703D02*
X0261619Y0054739D01*
X0261656Y0054777D01*
X0261691Y0054819D01*
X0261722Y0054862D01*
X0261751Y0054908D01*
X0261776Y0054955D01*
X0261798Y0055004D01*
X0261816Y0055055D01*
X0261831Y0055107D01*
X0261842Y0055159D01*
X0261850Y0055212D01*
X0261854Y0055266D01*
X0261854Y0055320D01*
X0261850Y0055374D01*
X0261842Y0055427D01*
X0261831Y0055479D01*
X0261816Y0055531D01*
X0261798Y0055582D01*
X0261776Y0055631D01*
X0261751Y0055678D01*
X0261722Y0055724D01*
X0261691Y0055767D01*
X0261656Y0055809D01*
X0261619Y0055847D01*
X0261579Y0055883D01*
X0254060Y0053501D02*
X0251560Y0053501D01*
X0252839Y0052261D02*
X0252839Y0054761D01*
X0252741Y0043501D02*
X0252741Y0041001D01*
X0261579Y0042203D02*
X0261619Y0042239D01*
X0261656Y0042277D01*
X0261691Y0042319D01*
X0261722Y0042362D01*
X0261751Y0042408D01*
X0261776Y0042455D01*
X0261798Y0042504D01*
X0261816Y0042555D01*
X0261831Y0042607D01*
X0261842Y0042659D01*
X0261850Y0042712D01*
X0261854Y0042766D01*
X0261854Y0042820D01*
X0261850Y0042874D01*
X0261842Y0042927D01*
X0261831Y0042979D01*
X0261816Y0043031D01*
X0261798Y0043082D01*
X0261776Y0043131D01*
X0261751Y0043178D01*
X0261722Y0043224D01*
X0261691Y0043267D01*
X0261656Y0043309D01*
X0261619Y0043347D01*
X0261579Y0043383D01*
X0261579Y0042202D02*
X0261539Y0042166D01*
X0261502Y0042128D01*
X0261467Y0042086D01*
X0261436Y0042043D01*
X0261407Y0041997D01*
X0261382Y0041950D01*
X0261360Y0041901D01*
X0261342Y0041850D01*
X0261327Y0041798D01*
X0261316Y0041746D01*
X0261308Y0041693D01*
X0261304Y0041639D01*
X0261304Y0041585D01*
X0261308Y0041531D01*
X0261316Y0041478D01*
X0261327Y0041426D01*
X0261342Y0041374D01*
X0261360Y0041323D01*
X0261382Y0041274D01*
X0261407Y0041227D01*
X0261436Y0041181D01*
X0261467Y0041138D01*
X0261502Y0041096D01*
X0261539Y0041058D01*
X0261579Y0041022D01*
X0261579Y0033796D02*
X0261619Y0033760D01*
X0261656Y0033722D01*
X0261691Y0033680D01*
X0261722Y0033637D01*
X0261751Y0033591D01*
X0261776Y0033544D01*
X0261798Y0033495D01*
X0261816Y0033444D01*
X0261831Y0033392D01*
X0261842Y0033340D01*
X0261850Y0033287D01*
X0261854Y0033233D01*
X0261854Y0033179D01*
X0261850Y0033125D01*
X0261842Y0033072D01*
X0261831Y0033020D01*
X0261816Y0032968D01*
X0261798Y0032917D01*
X0261776Y0032868D01*
X0261751Y0032821D01*
X0261722Y0032775D01*
X0261691Y0032732D01*
X0261656Y0032690D01*
X0261619Y0032652D01*
X0261579Y0032616D01*
X0261579Y0032615D02*
X0261539Y0032579D01*
X0261502Y0032541D01*
X0261467Y0032499D01*
X0261436Y0032456D01*
X0261407Y0032410D01*
X0261382Y0032363D01*
X0261360Y0032314D01*
X0261342Y0032263D01*
X0261327Y0032211D01*
X0261316Y0032159D01*
X0261308Y0032106D01*
X0261304Y0032052D01*
X0261304Y0031998D01*
X0261308Y0031944D01*
X0261316Y0031891D01*
X0261327Y0031839D01*
X0261342Y0031787D01*
X0261360Y0031736D01*
X0261382Y0031687D01*
X0261407Y0031640D01*
X0261436Y0031594D01*
X0261467Y0031551D01*
X0261502Y0031509D01*
X0261539Y0031471D01*
X0261579Y0031435D01*
X0254060Y0031415D02*
X0251560Y0031415D01*
X0252839Y0030175D02*
X0252839Y0032675D01*
X0252741Y0021415D02*
X0252741Y0018915D01*
X0261579Y0020116D02*
X0261619Y0020152D01*
X0261656Y0020190D01*
X0261691Y0020232D01*
X0261722Y0020275D01*
X0261751Y0020321D01*
X0261776Y0020368D01*
X0261798Y0020417D01*
X0261816Y0020468D01*
X0261831Y0020520D01*
X0261842Y0020572D01*
X0261850Y0020625D01*
X0261854Y0020679D01*
X0261854Y0020733D01*
X0261850Y0020787D01*
X0261842Y0020840D01*
X0261831Y0020892D01*
X0261816Y0020944D01*
X0261798Y0020995D01*
X0261776Y0021044D01*
X0261751Y0021091D01*
X0261722Y0021137D01*
X0261691Y0021180D01*
X0261656Y0021222D01*
X0261619Y0021260D01*
X0261579Y0021296D01*
X0261579Y0020115D02*
X0261539Y0020079D01*
X0261502Y0020041D01*
X0261467Y0019999D01*
X0261436Y0019956D01*
X0261407Y0019910D01*
X0261382Y0019863D01*
X0261360Y0019814D01*
X0261342Y0019763D01*
X0261327Y0019711D01*
X0261316Y0019659D01*
X0261308Y0019606D01*
X0261304Y0019552D01*
X0261304Y0019498D01*
X0261308Y0019444D01*
X0261316Y0019391D01*
X0261327Y0019339D01*
X0261342Y0019287D01*
X0261360Y0019236D01*
X0261382Y0019187D01*
X0261407Y0019140D01*
X0261436Y0019094D01*
X0261467Y0019051D01*
X0261502Y0019009D01*
X0261539Y0018971D01*
X0261579Y0018935D01*
X0235560Y0089981D02*
X0232490Y0089981D01*
X0234025Y0089981D02*
X0234025Y0094585D01*
X0232490Y0093050D01*
X0115693Y0102281D02*
X0115693Y0079052D01*
X0106638Y0069997D01*
X0103489Y0069997D01*
X0095615Y0069997D02*
X0092465Y0069997D01*
X0083410Y0079052D01*
X0083410Y0102281D01*
X0095615Y0102281D01*
X0103489Y0102281D02*
X0115693Y0102281D01*
X0096009Y0101296D02*
X0095640Y0101205D01*
X0095274Y0101106D01*
X0094910Y0100997D01*
X0094549Y0100879D01*
X0094192Y0100753D01*
X0093837Y0100618D01*
X0093486Y0100474D01*
X0093138Y0100322D01*
X0092794Y0100161D01*
X0092454Y0099992D01*
X0092118Y0099815D01*
X0091787Y0099630D01*
X0091460Y0099437D01*
X0091139Y0099235D01*
X0090822Y0099026D01*
X0090510Y0098810D01*
X0090204Y0098585D01*
X0089903Y0098354D01*
X0089608Y0098115D01*
X0089319Y0097869D01*
X0089036Y0097616D01*
X0088760Y0097356D01*
X0088489Y0097090D01*
X0088226Y0096817D01*
X0087969Y0096537D01*
X0087719Y0096252D01*
X0087475Y0095960D01*
X0087240Y0095663D01*
X0087011Y0095360D01*
X0086790Y0095051D01*
X0086576Y0094738D01*
X0086371Y0094419D01*
X0086173Y0094095D01*
X0085983Y0093766D01*
X0085801Y0093433D01*
X0085627Y0093096D01*
X0085462Y0092754D01*
X0085304Y0092408D01*
X0085156Y0092059D01*
X0085016Y0091706D01*
X0084884Y0091350D01*
X0084762Y0090991D01*
X0084648Y0090629D01*
X0084543Y0090264D01*
X0084446Y0089897D01*
X0084359Y0089528D01*
X0084281Y0089156D01*
X0084212Y0088783D01*
X0084152Y0088408D01*
X0084102Y0088032D01*
X0084060Y0087655D01*
X0084028Y0087277D01*
X0084005Y0086898D01*
X0083991Y0086519D01*
X0083986Y0086139D01*
X0083991Y0085759D01*
X0084005Y0085380D01*
X0084028Y0085001D01*
X0084060Y0084623D01*
X0084102Y0084246D01*
X0084152Y0083870D01*
X0084212Y0083495D01*
X0084281Y0083122D01*
X0084359Y0082750D01*
X0084446Y0082381D01*
X0084543Y0082014D01*
X0084648Y0081649D01*
X0084762Y0081287D01*
X0084884Y0080928D01*
X0085016Y0080572D01*
X0085156Y0080219D01*
X0085304Y0079870D01*
X0085462Y0079524D01*
X0085627Y0079182D01*
X0085801Y0078845D01*
X0085983Y0078512D01*
X0086173Y0078183D01*
X0086371Y0077859D01*
X0086576Y0077540D01*
X0086790Y0077227D01*
X0087011Y0076918D01*
X0087240Y0076615D01*
X0087475Y0076318D01*
X0087719Y0076026D01*
X0087969Y0075741D01*
X0088226Y0075461D01*
X0088489Y0075188D01*
X0088760Y0074922D01*
X0089036Y0074662D01*
X0089319Y0074409D01*
X0089608Y0074163D01*
X0089903Y0073924D01*
X0090204Y0073693D01*
X0090510Y0073468D01*
X0090822Y0073252D01*
X0091139Y0073043D01*
X0091460Y0072841D01*
X0091787Y0072648D01*
X0092118Y0072463D01*
X0092454Y0072286D01*
X0092794Y0072117D01*
X0093138Y0071956D01*
X0093486Y0071804D01*
X0093837Y0071660D01*
X0094192Y0071525D01*
X0094549Y0071399D01*
X0094910Y0071281D01*
X0095274Y0071172D01*
X0095640Y0071073D01*
X0096009Y0070982D01*
X0103095Y0070982D02*
X0103464Y0071073D01*
X0103830Y0071172D01*
X0104194Y0071281D01*
X0104555Y0071399D01*
X0104912Y0071525D01*
X0105267Y0071660D01*
X0105618Y0071804D01*
X0105966Y0071956D01*
X0106310Y0072117D01*
X0106650Y0072286D01*
X0106986Y0072463D01*
X0107317Y0072648D01*
X0107644Y0072841D01*
X0107965Y0073043D01*
X0108282Y0073252D01*
X0108594Y0073468D01*
X0108900Y0073693D01*
X0109201Y0073924D01*
X0109496Y0074163D01*
X0109785Y0074409D01*
X0110068Y0074662D01*
X0110344Y0074922D01*
X0110615Y0075188D01*
X0110878Y0075461D01*
X0111135Y0075741D01*
X0111385Y0076026D01*
X0111629Y0076318D01*
X0111864Y0076615D01*
X0112093Y0076918D01*
X0112314Y0077227D01*
X0112528Y0077540D01*
X0112733Y0077859D01*
X0112931Y0078183D01*
X0113121Y0078512D01*
X0113303Y0078845D01*
X0113477Y0079182D01*
X0113642Y0079524D01*
X0113800Y0079870D01*
X0113948Y0080219D01*
X0114088Y0080572D01*
X0114220Y0080928D01*
X0114342Y0081287D01*
X0114456Y0081649D01*
X0114561Y0082014D01*
X0114658Y0082381D01*
X0114745Y0082750D01*
X0114823Y0083122D01*
X0114892Y0083495D01*
X0114952Y0083870D01*
X0115002Y0084246D01*
X0115044Y0084623D01*
X0115076Y0085001D01*
X0115099Y0085380D01*
X0115113Y0085759D01*
X0115118Y0086139D01*
X0115113Y0086519D01*
X0115099Y0086898D01*
X0115076Y0087277D01*
X0115044Y0087655D01*
X0115002Y0088032D01*
X0114952Y0088408D01*
X0114892Y0088783D01*
X0114823Y0089156D01*
X0114745Y0089528D01*
X0114658Y0089897D01*
X0114561Y0090264D01*
X0114456Y0090629D01*
X0114342Y0090991D01*
X0114220Y0091350D01*
X0114088Y0091706D01*
X0113948Y0092059D01*
X0113800Y0092408D01*
X0113642Y0092754D01*
X0113477Y0093096D01*
X0113303Y0093433D01*
X0113121Y0093766D01*
X0112931Y0094095D01*
X0112733Y0094419D01*
X0112528Y0094738D01*
X0112314Y0095051D01*
X0112093Y0095360D01*
X0111864Y0095663D01*
X0111629Y0095960D01*
X0111385Y0096252D01*
X0111135Y0096537D01*
X0110878Y0096817D01*
X0110615Y0097090D01*
X0110344Y0097356D01*
X0110068Y0097616D01*
X0109785Y0097869D01*
X0109496Y0098115D01*
X0109201Y0098354D01*
X0108900Y0098585D01*
X0108594Y0098810D01*
X0108282Y0099026D01*
X0107965Y0099235D01*
X0107644Y0099437D01*
X0107317Y0099630D01*
X0106986Y0099815D01*
X0106650Y0099992D01*
X0106310Y0100161D01*
X0105966Y0100322D01*
X0105618Y0100474D01*
X0105267Y0100618D01*
X0104912Y0100753D01*
X0104555Y0100879D01*
X0104194Y0100997D01*
X0103830Y0101106D01*
X0103464Y0101205D01*
X0103095Y0101296D01*
X0084841Y0103317D02*
X0082439Y0103317D01*
X0083640Y0103317D02*
X0083640Y0106921D01*
X0082439Y0105719D01*
X0065733Y0100588D02*
X0065733Y0082950D01*
X0050615Y0082950D02*
X0050615Y0100588D01*
D12*
X0250063Y0048501D03*
X0250063Y0026415D03*
D13*
X0071841Y0048071D02*
X0061041Y0048071D01*
X0061041Y0067671D02*
X0065241Y0067671D01*
X0067641Y0067671D01*
X0071841Y0067671D01*
X0067641Y0067671D02*
X0067639Y0067602D01*
X0067633Y0067534D01*
X0067623Y0067466D01*
X0067610Y0067399D01*
X0067592Y0067333D01*
X0067571Y0067268D01*
X0067546Y0067204D01*
X0067518Y0067142D01*
X0067486Y0067081D01*
X0067451Y0067022D01*
X0067412Y0066966D01*
X0067370Y0066911D01*
X0067325Y0066860D01*
X0067277Y0066810D01*
X0067227Y0066764D01*
X0067174Y0066721D01*
X0067118Y0066680D01*
X0067061Y0066643D01*
X0067001Y0066610D01*
X0066939Y0066579D01*
X0066876Y0066553D01*
X0066812Y0066530D01*
X0066746Y0066510D01*
X0066679Y0066495D01*
X0066612Y0066483D01*
X0066544Y0066475D01*
X0066475Y0066471D01*
X0066407Y0066471D01*
X0066338Y0066475D01*
X0066270Y0066483D01*
X0066203Y0066495D01*
X0066136Y0066510D01*
X0066070Y0066530D01*
X0066006Y0066553D01*
X0065943Y0066579D01*
X0065881Y0066610D01*
X0065821Y0066643D01*
X0065764Y0066680D01*
X0065708Y0066721D01*
X0065655Y0066764D01*
X0065605Y0066810D01*
X0065557Y0066860D01*
X0065512Y0066911D01*
X0065470Y0066966D01*
X0065431Y0067022D01*
X0065396Y0067081D01*
X0065364Y0067142D01*
X0065336Y0067204D01*
X0065311Y0067268D01*
X0065290Y0067333D01*
X0065272Y0067399D01*
X0065259Y0067466D01*
X0065249Y0067534D01*
X0065243Y0067602D01*
X0065241Y0067671D01*
X0102291Y0042016D02*
X0102291Y0015616D01*
X0116891Y0015616D01*
X0116891Y0042016D01*
X0102291Y0042016D01*
D14*
X0122105Y0018482D02*
X0125241Y0015346D01*
X0123673Y0015346D02*
X0123673Y0018482D01*
X0125241Y0018482D02*
X0122105Y0015346D01*
X0122105Y0016914D02*
X0125241Y0016914D01*
X0056727Y0068005D02*
X0053591Y0071141D01*
X0053591Y0069573D02*
X0056727Y0069573D01*
X0056727Y0071141D02*
X0053591Y0068005D01*
X0055159Y0068005D02*
X0055159Y0071141D01*
D15*
X0067894Y0079730D02*
X0080894Y0079730D01*
X0080894Y0103730D01*
X0067894Y0103730D01*
X0067894Y0079730D01*
X0078489Y0109367D02*
X0082239Y0109367D01*
X0082239Y0108117D01*
X0084739Y0108117D01*
X0084739Y0109367D01*
X0088489Y0109367D01*
X0088489Y0119367D01*
X0078489Y0119367D01*
X0078489Y0109367D01*
X0082239Y0109367D02*
X0084739Y0109367D01*
X0088489Y0109367D02*
X0278489Y0109367D01*
X0278489Y0129367D01*
X0078489Y0129367D01*
X0078489Y0119367D01*
X0129276Y0097714D02*
X0135182Y0097714D01*
X0129276Y0097714D02*
X0129276Y0026848D01*
X0135182Y0026848D01*
X0152898Y0026848D02*
X0215890Y0026848D01*
X0233607Y0026848D02*
X0239512Y0026848D01*
X0239512Y0097714D01*
X0233607Y0097714D01*
X0215890Y0097714D02*
X0152898Y0097714D01*
X0252308Y0084328D02*
X0252308Y0071730D01*
X0262150Y0071730D01*
X0262150Y0084328D01*
X0252308Y0084328D01*
X0252229Y0078029D02*
X0257229Y0078029D01*
X0257229Y0073029D01*
X0308725Y0068698D02*
X0308725Y0034840D01*
X0308725Y0018108D02*
X0308725Y0012005D01*
X0308725Y0011907D02*
X0382741Y0011907D01*
X0382741Y0012005D02*
X0382741Y0018108D01*
X0382741Y0034840D02*
X0382741Y0068698D01*
X0361874Y0068698D01*
X0377623Y0086198D02*
X0382623Y0086198D01*
X0382623Y0113167D01*
X0377623Y0113167D01*
X0337623Y0113167D02*
X0332623Y0113167D01*
X0332623Y0104682D01*
X0337623Y0099682D02*
X0337621Y0099542D01*
X0337615Y0099402D01*
X0337605Y0099262D01*
X0337592Y0099122D01*
X0337574Y0098983D01*
X0337552Y0098844D01*
X0337527Y0098707D01*
X0337498Y0098569D01*
X0337465Y0098433D01*
X0337428Y0098298D01*
X0337387Y0098164D01*
X0337342Y0098031D01*
X0337294Y0097899D01*
X0337242Y0097769D01*
X0337187Y0097640D01*
X0337128Y0097513D01*
X0337065Y0097387D01*
X0336999Y0097263D01*
X0336930Y0097142D01*
X0336857Y0097022D01*
X0336780Y0096904D01*
X0336701Y0096789D01*
X0336618Y0096675D01*
X0336532Y0096565D01*
X0336443Y0096456D01*
X0336351Y0096350D01*
X0336256Y0096247D01*
X0336159Y0096146D01*
X0336058Y0096049D01*
X0335955Y0095954D01*
X0335849Y0095862D01*
X0335740Y0095773D01*
X0335630Y0095687D01*
X0335516Y0095604D01*
X0335401Y0095525D01*
X0335283Y0095448D01*
X0335163Y0095375D01*
X0335042Y0095306D01*
X0334918Y0095240D01*
X0334792Y0095177D01*
X0334665Y0095118D01*
X0334536Y0095063D01*
X0334406Y0095011D01*
X0334274Y0094963D01*
X0334141Y0094918D01*
X0334007Y0094877D01*
X0333872Y0094840D01*
X0333736Y0094807D01*
X0333598Y0094778D01*
X0333461Y0094753D01*
X0333322Y0094731D01*
X0333183Y0094713D01*
X0333043Y0094700D01*
X0332903Y0094690D01*
X0332763Y0094684D01*
X0332623Y0094682D01*
X0332623Y0086198D01*
X0337623Y0086198D01*
X0340339Y0088836D02*
X0338371Y0090804D01*
X0342308Y0090804D01*
X0340339Y0088836D01*
X0337623Y0099682D02*
X0337621Y0099822D01*
X0337615Y0099962D01*
X0337605Y0100102D01*
X0337592Y0100242D01*
X0337574Y0100381D01*
X0337552Y0100520D01*
X0337527Y0100657D01*
X0337498Y0100795D01*
X0337465Y0100931D01*
X0337428Y0101066D01*
X0337387Y0101200D01*
X0337342Y0101333D01*
X0337294Y0101465D01*
X0337242Y0101595D01*
X0337187Y0101724D01*
X0337128Y0101851D01*
X0337065Y0101977D01*
X0336999Y0102101D01*
X0336930Y0102222D01*
X0336857Y0102342D01*
X0336780Y0102460D01*
X0336701Y0102575D01*
X0336618Y0102689D01*
X0336532Y0102799D01*
X0336443Y0102908D01*
X0336351Y0103014D01*
X0336256Y0103117D01*
X0336159Y0103218D01*
X0336058Y0103315D01*
X0335955Y0103410D01*
X0335849Y0103502D01*
X0335740Y0103591D01*
X0335630Y0103677D01*
X0335516Y0103760D01*
X0335401Y0103839D01*
X0335283Y0103916D01*
X0335163Y0103989D01*
X0335042Y0104058D01*
X0334918Y0104124D01*
X0334792Y0104187D01*
X0334665Y0104246D01*
X0334536Y0104301D01*
X0334406Y0104353D01*
X0334274Y0104401D01*
X0334141Y0104446D01*
X0334007Y0104487D01*
X0333872Y0104524D01*
X0333736Y0104557D01*
X0333598Y0104586D01*
X0333461Y0104611D01*
X0333322Y0104633D01*
X0333183Y0104651D01*
X0333043Y0104664D01*
X0332903Y0104674D01*
X0332763Y0104680D01*
X0332623Y0104682D01*
X0329591Y0068698D02*
X0308725Y0068698D01*
M02*
