G75*
%MOIN*%
%OFA0B0*%
%FSLAX25Y25*%
%IPPOS*%
%LPD*%
%AMOC8*
5,1,8,0,0,1.08239X$1,22.5*
%
%ADD10C,0.00000*%
D10*
X0050536Y0026848D02*
X0050536Y0121336D01*
X0050539Y0121621D01*
X0050550Y0121907D01*
X0050567Y0122192D01*
X0050591Y0122476D01*
X0050622Y0122760D01*
X0050660Y0123043D01*
X0050705Y0123324D01*
X0050756Y0123605D01*
X0050814Y0123885D01*
X0050879Y0124163D01*
X0050951Y0124439D01*
X0051029Y0124713D01*
X0051114Y0124986D01*
X0051206Y0125256D01*
X0051304Y0125524D01*
X0051408Y0125790D01*
X0051519Y0126053D01*
X0051636Y0126313D01*
X0051759Y0126571D01*
X0051889Y0126825D01*
X0052025Y0127076D01*
X0052166Y0127324D01*
X0052314Y0127568D01*
X0052467Y0127809D01*
X0052627Y0128045D01*
X0052792Y0128278D01*
X0052962Y0128507D01*
X0053138Y0128732D01*
X0053320Y0128952D01*
X0053506Y0129168D01*
X0053698Y0129379D01*
X0053895Y0129586D01*
X0054097Y0129788D01*
X0054304Y0129985D01*
X0054515Y0130177D01*
X0054731Y0130363D01*
X0054951Y0130545D01*
X0055176Y0130721D01*
X0055405Y0130891D01*
X0055638Y0131056D01*
X0055874Y0131216D01*
X0056115Y0131369D01*
X0056359Y0131517D01*
X0056607Y0131658D01*
X0056858Y0131794D01*
X0057112Y0131924D01*
X0057370Y0132047D01*
X0057630Y0132164D01*
X0057893Y0132275D01*
X0058159Y0132379D01*
X0058427Y0132477D01*
X0058697Y0132569D01*
X0058970Y0132654D01*
X0059244Y0132732D01*
X0059520Y0132804D01*
X0059798Y0132869D01*
X0060078Y0132927D01*
X0060359Y0132978D01*
X0060640Y0133023D01*
X0060923Y0133061D01*
X0061207Y0133092D01*
X0061491Y0133116D01*
X0061776Y0133133D01*
X0062062Y0133144D01*
X0062347Y0133147D01*
X0381245Y0133147D01*
X0381530Y0133144D01*
X0381816Y0133133D01*
X0382101Y0133116D01*
X0382385Y0133092D01*
X0382669Y0133061D01*
X0382952Y0133023D01*
X0383233Y0132978D01*
X0383514Y0132927D01*
X0383794Y0132869D01*
X0384072Y0132804D01*
X0384348Y0132732D01*
X0384622Y0132654D01*
X0384895Y0132569D01*
X0385165Y0132477D01*
X0385433Y0132379D01*
X0385699Y0132275D01*
X0385962Y0132164D01*
X0386222Y0132047D01*
X0386480Y0131924D01*
X0386734Y0131794D01*
X0386985Y0131658D01*
X0387233Y0131517D01*
X0387477Y0131369D01*
X0387718Y0131216D01*
X0387954Y0131056D01*
X0388187Y0130891D01*
X0388416Y0130721D01*
X0388641Y0130545D01*
X0388861Y0130363D01*
X0389077Y0130177D01*
X0389288Y0129985D01*
X0389495Y0129788D01*
X0389697Y0129586D01*
X0389894Y0129379D01*
X0390086Y0129168D01*
X0390272Y0128952D01*
X0390454Y0128732D01*
X0390630Y0128507D01*
X0390800Y0128278D01*
X0390965Y0128045D01*
X0391125Y0127809D01*
X0391278Y0127568D01*
X0391426Y0127324D01*
X0391567Y0127076D01*
X0391703Y0126825D01*
X0391833Y0126571D01*
X0391956Y0126313D01*
X0392073Y0126053D01*
X0392184Y0125790D01*
X0392288Y0125524D01*
X0392386Y0125256D01*
X0392478Y0124986D01*
X0392563Y0124713D01*
X0392641Y0124439D01*
X0392713Y0124163D01*
X0392778Y0123885D01*
X0392836Y0123605D01*
X0392887Y0123324D01*
X0392932Y0123043D01*
X0392970Y0122760D01*
X0393001Y0122476D01*
X0393025Y0122192D01*
X0393042Y0121907D01*
X0393053Y0121621D01*
X0393056Y0121336D01*
X0393056Y0026848D01*
X0393053Y0026563D01*
X0393042Y0026277D01*
X0393025Y0025992D01*
X0393001Y0025708D01*
X0392970Y0025424D01*
X0392932Y0025141D01*
X0392887Y0024860D01*
X0392836Y0024579D01*
X0392778Y0024299D01*
X0392713Y0024021D01*
X0392641Y0023745D01*
X0392563Y0023471D01*
X0392478Y0023198D01*
X0392386Y0022928D01*
X0392288Y0022660D01*
X0392184Y0022394D01*
X0392073Y0022131D01*
X0391956Y0021871D01*
X0391833Y0021613D01*
X0391703Y0021359D01*
X0391567Y0021108D01*
X0391426Y0020860D01*
X0391278Y0020616D01*
X0391125Y0020375D01*
X0390965Y0020139D01*
X0390800Y0019906D01*
X0390630Y0019677D01*
X0390454Y0019452D01*
X0390272Y0019232D01*
X0390086Y0019016D01*
X0389894Y0018805D01*
X0389697Y0018598D01*
X0389495Y0018396D01*
X0389288Y0018199D01*
X0389077Y0018007D01*
X0388861Y0017821D01*
X0388641Y0017639D01*
X0388416Y0017463D01*
X0388187Y0017293D01*
X0387954Y0017128D01*
X0387718Y0016968D01*
X0387477Y0016815D01*
X0387233Y0016667D01*
X0386985Y0016526D01*
X0386734Y0016390D01*
X0386480Y0016260D01*
X0386222Y0016137D01*
X0385962Y0016020D01*
X0385699Y0015909D01*
X0385433Y0015805D01*
X0385165Y0015707D01*
X0384895Y0015615D01*
X0384622Y0015530D01*
X0384348Y0015452D01*
X0384072Y0015380D01*
X0383794Y0015315D01*
X0383514Y0015257D01*
X0383233Y0015206D01*
X0382952Y0015161D01*
X0382669Y0015123D01*
X0382385Y0015092D01*
X0382101Y0015068D01*
X0381816Y0015051D01*
X0381530Y0015040D01*
X0381245Y0015037D01*
X0062347Y0015037D01*
X0062062Y0015040D01*
X0061776Y0015051D01*
X0061491Y0015068D01*
X0061207Y0015092D01*
X0060923Y0015123D01*
X0060640Y0015161D01*
X0060359Y0015206D01*
X0060078Y0015257D01*
X0059798Y0015315D01*
X0059520Y0015380D01*
X0059244Y0015452D01*
X0058970Y0015530D01*
X0058697Y0015615D01*
X0058427Y0015707D01*
X0058159Y0015805D01*
X0057893Y0015909D01*
X0057630Y0016020D01*
X0057370Y0016137D01*
X0057112Y0016260D01*
X0056858Y0016390D01*
X0056607Y0016526D01*
X0056359Y0016667D01*
X0056115Y0016815D01*
X0055874Y0016968D01*
X0055638Y0017128D01*
X0055405Y0017293D01*
X0055176Y0017463D01*
X0054951Y0017639D01*
X0054731Y0017821D01*
X0054515Y0018007D01*
X0054304Y0018199D01*
X0054097Y0018396D01*
X0053895Y0018598D01*
X0053698Y0018805D01*
X0053506Y0019016D01*
X0053320Y0019232D01*
X0053138Y0019452D01*
X0052962Y0019677D01*
X0052792Y0019906D01*
X0052627Y0020139D01*
X0052467Y0020375D01*
X0052314Y0020616D01*
X0052166Y0020860D01*
X0052025Y0021108D01*
X0051889Y0021359D01*
X0051759Y0021613D01*
X0051636Y0021871D01*
X0051519Y0022131D01*
X0051408Y0022394D01*
X0051304Y0022660D01*
X0051206Y0022928D01*
X0051114Y0023198D01*
X0051029Y0023471D01*
X0050951Y0023745D01*
X0050879Y0024021D01*
X0050814Y0024299D01*
X0050756Y0024579D01*
X0050705Y0024860D01*
X0050660Y0025141D01*
X0050622Y0025424D01*
X0050591Y0025708D01*
X0050567Y0025992D01*
X0050550Y0026277D01*
X0050539Y0026563D01*
X0050536Y0026848D01*
X0058902Y0028816D02*
X0058904Y0028963D01*
X0058910Y0029109D01*
X0058920Y0029255D01*
X0058934Y0029401D01*
X0058952Y0029547D01*
X0058973Y0029692D01*
X0058999Y0029836D01*
X0059029Y0029980D01*
X0059062Y0030122D01*
X0059099Y0030264D01*
X0059140Y0030405D01*
X0059185Y0030544D01*
X0059234Y0030683D01*
X0059286Y0030820D01*
X0059343Y0030955D01*
X0059402Y0031089D01*
X0059466Y0031221D01*
X0059533Y0031351D01*
X0059603Y0031480D01*
X0059677Y0031607D01*
X0059754Y0031731D01*
X0059835Y0031854D01*
X0059919Y0031974D01*
X0060006Y0032092D01*
X0060096Y0032207D01*
X0060189Y0032320D01*
X0060286Y0032431D01*
X0060385Y0032539D01*
X0060487Y0032644D01*
X0060592Y0032746D01*
X0060700Y0032845D01*
X0060811Y0032942D01*
X0060924Y0033035D01*
X0061039Y0033125D01*
X0061157Y0033212D01*
X0061277Y0033296D01*
X0061400Y0033377D01*
X0061524Y0033454D01*
X0061651Y0033528D01*
X0061780Y0033598D01*
X0061910Y0033665D01*
X0062042Y0033729D01*
X0062176Y0033788D01*
X0062311Y0033845D01*
X0062448Y0033897D01*
X0062587Y0033946D01*
X0062726Y0033991D01*
X0062867Y0034032D01*
X0063009Y0034069D01*
X0063151Y0034102D01*
X0063295Y0034132D01*
X0063439Y0034158D01*
X0063584Y0034179D01*
X0063730Y0034197D01*
X0063876Y0034211D01*
X0064022Y0034221D01*
X0064168Y0034227D01*
X0064315Y0034229D01*
X0064462Y0034227D01*
X0064608Y0034221D01*
X0064754Y0034211D01*
X0064900Y0034197D01*
X0065046Y0034179D01*
X0065191Y0034158D01*
X0065335Y0034132D01*
X0065479Y0034102D01*
X0065621Y0034069D01*
X0065763Y0034032D01*
X0065904Y0033991D01*
X0066043Y0033946D01*
X0066182Y0033897D01*
X0066319Y0033845D01*
X0066454Y0033788D01*
X0066588Y0033729D01*
X0066720Y0033665D01*
X0066850Y0033598D01*
X0066979Y0033528D01*
X0067106Y0033454D01*
X0067230Y0033377D01*
X0067353Y0033296D01*
X0067473Y0033212D01*
X0067591Y0033125D01*
X0067706Y0033035D01*
X0067819Y0032942D01*
X0067930Y0032845D01*
X0068038Y0032746D01*
X0068143Y0032644D01*
X0068245Y0032539D01*
X0068344Y0032431D01*
X0068441Y0032320D01*
X0068534Y0032207D01*
X0068624Y0032092D01*
X0068711Y0031974D01*
X0068795Y0031854D01*
X0068876Y0031731D01*
X0068953Y0031607D01*
X0069027Y0031480D01*
X0069097Y0031351D01*
X0069164Y0031221D01*
X0069228Y0031089D01*
X0069287Y0030955D01*
X0069344Y0030820D01*
X0069396Y0030683D01*
X0069445Y0030544D01*
X0069490Y0030405D01*
X0069531Y0030264D01*
X0069568Y0030122D01*
X0069601Y0029980D01*
X0069631Y0029836D01*
X0069657Y0029692D01*
X0069678Y0029547D01*
X0069696Y0029401D01*
X0069710Y0029255D01*
X0069720Y0029109D01*
X0069726Y0028963D01*
X0069728Y0028816D01*
X0069726Y0028669D01*
X0069720Y0028523D01*
X0069710Y0028377D01*
X0069696Y0028231D01*
X0069678Y0028085D01*
X0069657Y0027940D01*
X0069631Y0027796D01*
X0069601Y0027652D01*
X0069568Y0027510D01*
X0069531Y0027368D01*
X0069490Y0027227D01*
X0069445Y0027088D01*
X0069396Y0026949D01*
X0069344Y0026812D01*
X0069287Y0026677D01*
X0069228Y0026543D01*
X0069164Y0026411D01*
X0069097Y0026281D01*
X0069027Y0026152D01*
X0068953Y0026025D01*
X0068876Y0025901D01*
X0068795Y0025778D01*
X0068711Y0025658D01*
X0068624Y0025540D01*
X0068534Y0025425D01*
X0068441Y0025312D01*
X0068344Y0025201D01*
X0068245Y0025093D01*
X0068143Y0024988D01*
X0068038Y0024886D01*
X0067930Y0024787D01*
X0067819Y0024690D01*
X0067706Y0024597D01*
X0067591Y0024507D01*
X0067473Y0024420D01*
X0067353Y0024336D01*
X0067230Y0024255D01*
X0067106Y0024178D01*
X0066979Y0024104D01*
X0066850Y0024034D01*
X0066720Y0023967D01*
X0066588Y0023903D01*
X0066454Y0023844D01*
X0066319Y0023787D01*
X0066182Y0023735D01*
X0066043Y0023686D01*
X0065904Y0023641D01*
X0065763Y0023600D01*
X0065621Y0023563D01*
X0065479Y0023530D01*
X0065335Y0023500D01*
X0065191Y0023474D01*
X0065046Y0023453D01*
X0064900Y0023435D01*
X0064754Y0023421D01*
X0064608Y0023411D01*
X0064462Y0023405D01*
X0064315Y0023403D01*
X0064168Y0023405D01*
X0064022Y0023411D01*
X0063876Y0023421D01*
X0063730Y0023435D01*
X0063584Y0023453D01*
X0063439Y0023474D01*
X0063295Y0023500D01*
X0063151Y0023530D01*
X0063009Y0023563D01*
X0062867Y0023600D01*
X0062726Y0023641D01*
X0062587Y0023686D01*
X0062448Y0023735D01*
X0062311Y0023787D01*
X0062176Y0023844D01*
X0062042Y0023903D01*
X0061910Y0023967D01*
X0061780Y0024034D01*
X0061651Y0024104D01*
X0061524Y0024178D01*
X0061400Y0024255D01*
X0061277Y0024336D01*
X0061157Y0024420D01*
X0061039Y0024507D01*
X0060924Y0024597D01*
X0060811Y0024690D01*
X0060700Y0024787D01*
X0060592Y0024886D01*
X0060487Y0024988D01*
X0060385Y0025093D01*
X0060286Y0025201D01*
X0060189Y0025312D01*
X0060096Y0025425D01*
X0060006Y0025540D01*
X0059919Y0025658D01*
X0059835Y0025778D01*
X0059754Y0025901D01*
X0059677Y0026025D01*
X0059603Y0026152D01*
X0059533Y0026281D01*
X0059466Y0026411D01*
X0059402Y0026543D01*
X0059343Y0026677D01*
X0059286Y0026812D01*
X0059234Y0026949D01*
X0059185Y0027088D01*
X0059140Y0027227D01*
X0059099Y0027368D01*
X0059062Y0027510D01*
X0059029Y0027652D01*
X0058999Y0027796D01*
X0058973Y0027940D01*
X0058952Y0028085D01*
X0058934Y0028231D01*
X0058920Y0028377D01*
X0058910Y0028523D01*
X0058904Y0028669D01*
X0058902Y0028816D01*
X0058902Y0119367D02*
X0058904Y0119514D01*
X0058910Y0119660D01*
X0058920Y0119806D01*
X0058934Y0119952D01*
X0058952Y0120098D01*
X0058973Y0120243D01*
X0058999Y0120387D01*
X0059029Y0120531D01*
X0059062Y0120673D01*
X0059099Y0120815D01*
X0059140Y0120956D01*
X0059185Y0121095D01*
X0059234Y0121234D01*
X0059286Y0121371D01*
X0059343Y0121506D01*
X0059402Y0121640D01*
X0059466Y0121772D01*
X0059533Y0121902D01*
X0059603Y0122031D01*
X0059677Y0122158D01*
X0059754Y0122282D01*
X0059835Y0122405D01*
X0059919Y0122525D01*
X0060006Y0122643D01*
X0060096Y0122758D01*
X0060189Y0122871D01*
X0060286Y0122982D01*
X0060385Y0123090D01*
X0060487Y0123195D01*
X0060592Y0123297D01*
X0060700Y0123396D01*
X0060811Y0123493D01*
X0060924Y0123586D01*
X0061039Y0123676D01*
X0061157Y0123763D01*
X0061277Y0123847D01*
X0061400Y0123928D01*
X0061524Y0124005D01*
X0061651Y0124079D01*
X0061780Y0124149D01*
X0061910Y0124216D01*
X0062042Y0124280D01*
X0062176Y0124339D01*
X0062311Y0124396D01*
X0062448Y0124448D01*
X0062587Y0124497D01*
X0062726Y0124542D01*
X0062867Y0124583D01*
X0063009Y0124620D01*
X0063151Y0124653D01*
X0063295Y0124683D01*
X0063439Y0124709D01*
X0063584Y0124730D01*
X0063730Y0124748D01*
X0063876Y0124762D01*
X0064022Y0124772D01*
X0064168Y0124778D01*
X0064315Y0124780D01*
X0064462Y0124778D01*
X0064608Y0124772D01*
X0064754Y0124762D01*
X0064900Y0124748D01*
X0065046Y0124730D01*
X0065191Y0124709D01*
X0065335Y0124683D01*
X0065479Y0124653D01*
X0065621Y0124620D01*
X0065763Y0124583D01*
X0065904Y0124542D01*
X0066043Y0124497D01*
X0066182Y0124448D01*
X0066319Y0124396D01*
X0066454Y0124339D01*
X0066588Y0124280D01*
X0066720Y0124216D01*
X0066850Y0124149D01*
X0066979Y0124079D01*
X0067106Y0124005D01*
X0067230Y0123928D01*
X0067353Y0123847D01*
X0067473Y0123763D01*
X0067591Y0123676D01*
X0067706Y0123586D01*
X0067819Y0123493D01*
X0067930Y0123396D01*
X0068038Y0123297D01*
X0068143Y0123195D01*
X0068245Y0123090D01*
X0068344Y0122982D01*
X0068441Y0122871D01*
X0068534Y0122758D01*
X0068624Y0122643D01*
X0068711Y0122525D01*
X0068795Y0122405D01*
X0068876Y0122282D01*
X0068953Y0122158D01*
X0069027Y0122031D01*
X0069097Y0121902D01*
X0069164Y0121772D01*
X0069228Y0121640D01*
X0069287Y0121506D01*
X0069344Y0121371D01*
X0069396Y0121234D01*
X0069445Y0121095D01*
X0069490Y0120956D01*
X0069531Y0120815D01*
X0069568Y0120673D01*
X0069601Y0120531D01*
X0069631Y0120387D01*
X0069657Y0120243D01*
X0069678Y0120098D01*
X0069696Y0119952D01*
X0069710Y0119806D01*
X0069720Y0119660D01*
X0069726Y0119514D01*
X0069728Y0119367D01*
X0069726Y0119220D01*
X0069720Y0119074D01*
X0069710Y0118928D01*
X0069696Y0118782D01*
X0069678Y0118636D01*
X0069657Y0118491D01*
X0069631Y0118347D01*
X0069601Y0118203D01*
X0069568Y0118061D01*
X0069531Y0117919D01*
X0069490Y0117778D01*
X0069445Y0117639D01*
X0069396Y0117500D01*
X0069344Y0117363D01*
X0069287Y0117228D01*
X0069228Y0117094D01*
X0069164Y0116962D01*
X0069097Y0116832D01*
X0069027Y0116703D01*
X0068953Y0116576D01*
X0068876Y0116452D01*
X0068795Y0116329D01*
X0068711Y0116209D01*
X0068624Y0116091D01*
X0068534Y0115976D01*
X0068441Y0115863D01*
X0068344Y0115752D01*
X0068245Y0115644D01*
X0068143Y0115539D01*
X0068038Y0115437D01*
X0067930Y0115338D01*
X0067819Y0115241D01*
X0067706Y0115148D01*
X0067591Y0115058D01*
X0067473Y0114971D01*
X0067353Y0114887D01*
X0067230Y0114806D01*
X0067106Y0114729D01*
X0066979Y0114655D01*
X0066850Y0114585D01*
X0066720Y0114518D01*
X0066588Y0114454D01*
X0066454Y0114395D01*
X0066319Y0114338D01*
X0066182Y0114286D01*
X0066043Y0114237D01*
X0065904Y0114192D01*
X0065763Y0114151D01*
X0065621Y0114114D01*
X0065479Y0114081D01*
X0065335Y0114051D01*
X0065191Y0114025D01*
X0065046Y0114004D01*
X0064900Y0113986D01*
X0064754Y0113972D01*
X0064608Y0113962D01*
X0064462Y0113956D01*
X0064315Y0113954D01*
X0064168Y0113956D01*
X0064022Y0113962D01*
X0063876Y0113972D01*
X0063730Y0113986D01*
X0063584Y0114004D01*
X0063439Y0114025D01*
X0063295Y0114051D01*
X0063151Y0114081D01*
X0063009Y0114114D01*
X0062867Y0114151D01*
X0062726Y0114192D01*
X0062587Y0114237D01*
X0062448Y0114286D01*
X0062311Y0114338D01*
X0062176Y0114395D01*
X0062042Y0114454D01*
X0061910Y0114518D01*
X0061780Y0114585D01*
X0061651Y0114655D01*
X0061524Y0114729D01*
X0061400Y0114806D01*
X0061277Y0114887D01*
X0061157Y0114971D01*
X0061039Y0115058D01*
X0060924Y0115148D01*
X0060811Y0115241D01*
X0060700Y0115338D01*
X0060592Y0115437D01*
X0060487Y0115539D01*
X0060385Y0115644D01*
X0060286Y0115752D01*
X0060189Y0115863D01*
X0060096Y0115976D01*
X0060006Y0116091D01*
X0059919Y0116209D01*
X0059835Y0116329D01*
X0059754Y0116452D01*
X0059677Y0116576D01*
X0059603Y0116703D01*
X0059533Y0116832D01*
X0059466Y0116962D01*
X0059402Y0117094D01*
X0059343Y0117228D01*
X0059286Y0117363D01*
X0059234Y0117500D01*
X0059185Y0117639D01*
X0059140Y0117778D01*
X0059099Y0117919D01*
X0059062Y0118061D01*
X0059029Y0118203D01*
X0058999Y0118347D01*
X0058973Y0118491D01*
X0058952Y0118636D01*
X0058934Y0118782D01*
X0058920Y0118928D01*
X0058910Y0119074D01*
X0058904Y0119220D01*
X0058902Y0119367D01*
X0287249Y0119367D02*
X0287251Y0119514D01*
X0287257Y0119660D01*
X0287267Y0119806D01*
X0287281Y0119952D01*
X0287299Y0120098D01*
X0287320Y0120243D01*
X0287346Y0120387D01*
X0287376Y0120531D01*
X0287409Y0120673D01*
X0287446Y0120815D01*
X0287487Y0120956D01*
X0287532Y0121095D01*
X0287581Y0121234D01*
X0287633Y0121371D01*
X0287690Y0121506D01*
X0287749Y0121640D01*
X0287813Y0121772D01*
X0287880Y0121902D01*
X0287950Y0122031D01*
X0288024Y0122158D01*
X0288101Y0122282D01*
X0288182Y0122405D01*
X0288266Y0122525D01*
X0288353Y0122643D01*
X0288443Y0122758D01*
X0288536Y0122871D01*
X0288633Y0122982D01*
X0288732Y0123090D01*
X0288834Y0123195D01*
X0288939Y0123297D01*
X0289047Y0123396D01*
X0289158Y0123493D01*
X0289271Y0123586D01*
X0289386Y0123676D01*
X0289504Y0123763D01*
X0289624Y0123847D01*
X0289747Y0123928D01*
X0289871Y0124005D01*
X0289998Y0124079D01*
X0290127Y0124149D01*
X0290257Y0124216D01*
X0290389Y0124280D01*
X0290523Y0124339D01*
X0290658Y0124396D01*
X0290795Y0124448D01*
X0290934Y0124497D01*
X0291073Y0124542D01*
X0291214Y0124583D01*
X0291356Y0124620D01*
X0291498Y0124653D01*
X0291642Y0124683D01*
X0291786Y0124709D01*
X0291931Y0124730D01*
X0292077Y0124748D01*
X0292223Y0124762D01*
X0292369Y0124772D01*
X0292515Y0124778D01*
X0292662Y0124780D01*
X0292809Y0124778D01*
X0292955Y0124772D01*
X0293101Y0124762D01*
X0293247Y0124748D01*
X0293393Y0124730D01*
X0293538Y0124709D01*
X0293682Y0124683D01*
X0293826Y0124653D01*
X0293968Y0124620D01*
X0294110Y0124583D01*
X0294251Y0124542D01*
X0294390Y0124497D01*
X0294529Y0124448D01*
X0294666Y0124396D01*
X0294801Y0124339D01*
X0294935Y0124280D01*
X0295067Y0124216D01*
X0295197Y0124149D01*
X0295326Y0124079D01*
X0295453Y0124005D01*
X0295577Y0123928D01*
X0295700Y0123847D01*
X0295820Y0123763D01*
X0295938Y0123676D01*
X0296053Y0123586D01*
X0296166Y0123493D01*
X0296277Y0123396D01*
X0296385Y0123297D01*
X0296490Y0123195D01*
X0296592Y0123090D01*
X0296691Y0122982D01*
X0296788Y0122871D01*
X0296881Y0122758D01*
X0296971Y0122643D01*
X0297058Y0122525D01*
X0297142Y0122405D01*
X0297223Y0122282D01*
X0297300Y0122158D01*
X0297374Y0122031D01*
X0297444Y0121902D01*
X0297511Y0121772D01*
X0297575Y0121640D01*
X0297634Y0121506D01*
X0297691Y0121371D01*
X0297743Y0121234D01*
X0297792Y0121095D01*
X0297837Y0120956D01*
X0297878Y0120815D01*
X0297915Y0120673D01*
X0297948Y0120531D01*
X0297978Y0120387D01*
X0298004Y0120243D01*
X0298025Y0120098D01*
X0298043Y0119952D01*
X0298057Y0119806D01*
X0298067Y0119660D01*
X0298073Y0119514D01*
X0298075Y0119367D01*
X0298073Y0119220D01*
X0298067Y0119074D01*
X0298057Y0118928D01*
X0298043Y0118782D01*
X0298025Y0118636D01*
X0298004Y0118491D01*
X0297978Y0118347D01*
X0297948Y0118203D01*
X0297915Y0118061D01*
X0297878Y0117919D01*
X0297837Y0117778D01*
X0297792Y0117639D01*
X0297743Y0117500D01*
X0297691Y0117363D01*
X0297634Y0117228D01*
X0297575Y0117094D01*
X0297511Y0116962D01*
X0297444Y0116832D01*
X0297374Y0116703D01*
X0297300Y0116576D01*
X0297223Y0116452D01*
X0297142Y0116329D01*
X0297058Y0116209D01*
X0296971Y0116091D01*
X0296881Y0115976D01*
X0296788Y0115863D01*
X0296691Y0115752D01*
X0296592Y0115644D01*
X0296490Y0115539D01*
X0296385Y0115437D01*
X0296277Y0115338D01*
X0296166Y0115241D01*
X0296053Y0115148D01*
X0295938Y0115058D01*
X0295820Y0114971D01*
X0295700Y0114887D01*
X0295577Y0114806D01*
X0295453Y0114729D01*
X0295326Y0114655D01*
X0295197Y0114585D01*
X0295067Y0114518D01*
X0294935Y0114454D01*
X0294801Y0114395D01*
X0294666Y0114338D01*
X0294529Y0114286D01*
X0294390Y0114237D01*
X0294251Y0114192D01*
X0294110Y0114151D01*
X0293968Y0114114D01*
X0293826Y0114081D01*
X0293682Y0114051D01*
X0293538Y0114025D01*
X0293393Y0114004D01*
X0293247Y0113986D01*
X0293101Y0113972D01*
X0292955Y0113962D01*
X0292809Y0113956D01*
X0292662Y0113954D01*
X0292515Y0113956D01*
X0292369Y0113962D01*
X0292223Y0113972D01*
X0292077Y0113986D01*
X0291931Y0114004D01*
X0291786Y0114025D01*
X0291642Y0114051D01*
X0291498Y0114081D01*
X0291356Y0114114D01*
X0291214Y0114151D01*
X0291073Y0114192D01*
X0290934Y0114237D01*
X0290795Y0114286D01*
X0290658Y0114338D01*
X0290523Y0114395D01*
X0290389Y0114454D01*
X0290257Y0114518D01*
X0290127Y0114585D01*
X0289998Y0114655D01*
X0289871Y0114729D01*
X0289747Y0114806D01*
X0289624Y0114887D01*
X0289504Y0114971D01*
X0289386Y0115058D01*
X0289271Y0115148D01*
X0289158Y0115241D01*
X0289047Y0115338D01*
X0288939Y0115437D01*
X0288834Y0115539D01*
X0288732Y0115644D01*
X0288633Y0115752D01*
X0288536Y0115863D01*
X0288443Y0115976D01*
X0288353Y0116091D01*
X0288266Y0116209D01*
X0288182Y0116329D01*
X0288101Y0116452D01*
X0288024Y0116576D01*
X0287950Y0116703D01*
X0287880Y0116832D01*
X0287813Y0116962D01*
X0287749Y0117094D01*
X0287690Y0117228D01*
X0287633Y0117363D01*
X0287581Y0117500D01*
X0287532Y0117639D01*
X0287487Y0117778D01*
X0287446Y0117919D01*
X0287409Y0118061D01*
X0287376Y0118203D01*
X0287346Y0118347D01*
X0287320Y0118491D01*
X0287299Y0118636D01*
X0287281Y0118782D01*
X0287267Y0118928D01*
X0287257Y0119074D01*
X0287251Y0119220D01*
X0287249Y0119367D01*
X0287249Y0028816D02*
X0287251Y0028963D01*
X0287257Y0029109D01*
X0287267Y0029255D01*
X0287281Y0029401D01*
X0287299Y0029547D01*
X0287320Y0029692D01*
X0287346Y0029836D01*
X0287376Y0029980D01*
X0287409Y0030122D01*
X0287446Y0030264D01*
X0287487Y0030405D01*
X0287532Y0030544D01*
X0287581Y0030683D01*
X0287633Y0030820D01*
X0287690Y0030955D01*
X0287749Y0031089D01*
X0287813Y0031221D01*
X0287880Y0031351D01*
X0287950Y0031480D01*
X0288024Y0031607D01*
X0288101Y0031731D01*
X0288182Y0031854D01*
X0288266Y0031974D01*
X0288353Y0032092D01*
X0288443Y0032207D01*
X0288536Y0032320D01*
X0288633Y0032431D01*
X0288732Y0032539D01*
X0288834Y0032644D01*
X0288939Y0032746D01*
X0289047Y0032845D01*
X0289158Y0032942D01*
X0289271Y0033035D01*
X0289386Y0033125D01*
X0289504Y0033212D01*
X0289624Y0033296D01*
X0289747Y0033377D01*
X0289871Y0033454D01*
X0289998Y0033528D01*
X0290127Y0033598D01*
X0290257Y0033665D01*
X0290389Y0033729D01*
X0290523Y0033788D01*
X0290658Y0033845D01*
X0290795Y0033897D01*
X0290934Y0033946D01*
X0291073Y0033991D01*
X0291214Y0034032D01*
X0291356Y0034069D01*
X0291498Y0034102D01*
X0291642Y0034132D01*
X0291786Y0034158D01*
X0291931Y0034179D01*
X0292077Y0034197D01*
X0292223Y0034211D01*
X0292369Y0034221D01*
X0292515Y0034227D01*
X0292662Y0034229D01*
X0292809Y0034227D01*
X0292955Y0034221D01*
X0293101Y0034211D01*
X0293247Y0034197D01*
X0293393Y0034179D01*
X0293538Y0034158D01*
X0293682Y0034132D01*
X0293826Y0034102D01*
X0293968Y0034069D01*
X0294110Y0034032D01*
X0294251Y0033991D01*
X0294390Y0033946D01*
X0294529Y0033897D01*
X0294666Y0033845D01*
X0294801Y0033788D01*
X0294935Y0033729D01*
X0295067Y0033665D01*
X0295197Y0033598D01*
X0295326Y0033528D01*
X0295453Y0033454D01*
X0295577Y0033377D01*
X0295700Y0033296D01*
X0295820Y0033212D01*
X0295938Y0033125D01*
X0296053Y0033035D01*
X0296166Y0032942D01*
X0296277Y0032845D01*
X0296385Y0032746D01*
X0296490Y0032644D01*
X0296592Y0032539D01*
X0296691Y0032431D01*
X0296788Y0032320D01*
X0296881Y0032207D01*
X0296971Y0032092D01*
X0297058Y0031974D01*
X0297142Y0031854D01*
X0297223Y0031731D01*
X0297300Y0031607D01*
X0297374Y0031480D01*
X0297444Y0031351D01*
X0297511Y0031221D01*
X0297575Y0031089D01*
X0297634Y0030955D01*
X0297691Y0030820D01*
X0297743Y0030683D01*
X0297792Y0030544D01*
X0297837Y0030405D01*
X0297878Y0030264D01*
X0297915Y0030122D01*
X0297948Y0029980D01*
X0297978Y0029836D01*
X0298004Y0029692D01*
X0298025Y0029547D01*
X0298043Y0029401D01*
X0298057Y0029255D01*
X0298067Y0029109D01*
X0298073Y0028963D01*
X0298075Y0028816D01*
X0298073Y0028669D01*
X0298067Y0028523D01*
X0298057Y0028377D01*
X0298043Y0028231D01*
X0298025Y0028085D01*
X0298004Y0027940D01*
X0297978Y0027796D01*
X0297948Y0027652D01*
X0297915Y0027510D01*
X0297878Y0027368D01*
X0297837Y0027227D01*
X0297792Y0027088D01*
X0297743Y0026949D01*
X0297691Y0026812D01*
X0297634Y0026677D01*
X0297575Y0026543D01*
X0297511Y0026411D01*
X0297444Y0026281D01*
X0297374Y0026152D01*
X0297300Y0026025D01*
X0297223Y0025901D01*
X0297142Y0025778D01*
X0297058Y0025658D01*
X0296971Y0025540D01*
X0296881Y0025425D01*
X0296788Y0025312D01*
X0296691Y0025201D01*
X0296592Y0025093D01*
X0296490Y0024988D01*
X0296385Y0024886D01*
X0296277Y0024787D01*
X0296166Y0024690D01*
X0296053Y0024597D01*
X0295938Y0024507D01*
X0295820Y0024420D01*
X0295700Y0024336D01*
X0295577Y0024255D01*
X0295453Y0024178D01*
X0295326Y0024104D01*
X0295197Y0024034D01*
X0295067Y0023967D01*
X0294935Y0023903D01*
X0294801Y0023844D01*
X0294666Y0023787D01*
X0294529Y0023735D01*
X0294390Y0023686D01*
X0294251Y0023641D01*
X0294110Y0023600D01*
X0293968Y0023563D01*
X0293826Y0023530D01*
X0293682Y0023500D01*
X0293538Y0023474D01*
X0293393Y0023453D01*
X0293247Y0023435D01*
X0293101Y0023421D01*
X0292955Y0023411D01*
X0292809Y0023405D01*
X0292662Y0023403D01*
X0292515Y0023405D01*
X0292369Y0023411D01*
X0292223Y0023421D01*
X0292077Y0023435D01*
X0291931Y0023453D01*
X0291786Y0023474D01*
X0291642Y0023500D01*
X0291498Y0023530D01*
X0291356Y0023563D01*
X0291214Y0023600D01*
X0291073Y0023641D01*
X0290934Y0023686D01*
X0290795Y0023735D01*
X0290658Y0023787D01*
X0290523Y0023844D01*
X0290389Y0023903D01*
X0290257Y0023967D01*
X0290127Y0024034D01*
X0289998Y0024104D01*
X0289871Y0024178D01*
X0289747Y0024255D01*
X0289624Y0024336D01*
X0289504Y0024420D01*
X0289386Y0024507D01*
X0289271Y0024597D01*
X0289158Y0024690D01*
X0289047Y0024787D01*
X0288939Y0024886D01*
X0288834Y0024988D01*
X0288732Y0025093D01*
X0288633Y0025201D01*
X0288536Y0025312D01*
X0288443Y0025425D01*
X0288353Y0025540D01*
X0288266Y0025658D01*
X0288182Y0025778D01*
X0288101Y0025901D01*
X0288024Y0026025D01*
X0287950Y0026152D01*
X0287880Y0026281D01*
X0287813Y0026411D01*
X0287749Y0026543D01*
X0287690Y0026677D01*
X0287633Y0026812D01*
X0287581Y0026949D01*
X0287532Y0027088D01*
X0287487Y0027227D01*
X0287446Y0027368D01*
X0287409Y0027510D01*
X0287376Y0027652D01*
X0287346Y0027796D01*
X0287320Y0027940D01*
X0287299Y0028085D01*
X0287281Y0028231D01*
X0287267Y0028377D01*
X0287257Y0028523D01*
X0287251Y0028669D01*
X0287249Y0028816D01*
X0314335Y0026612D02*
X0314337Y0026772D01*
X0314343Y0026931D01*
X0314353Y0027090D01*
X0314367Y0027249D01*
X0314385Y0027408D01*
X0314406Y0027566D01*
X0314432Y0027723D01*
X0314462Y0027880D01*
X0314495Y0028036D01*
X0314533Y0028191D01*
X0314574Y0028345D01*
X0314619Y0028498D01*
X0314668Y0028650D01*
X0314721Y0028800D01*
X0314777Y0028949D01*
X0314837Y0029097D01*
X0314901Y0029243D01*
X0314969Y0029388D01*
X0315040Y0029531D01*
X0315114Y0029672D01*
X0315192Y0029811D01*
X0315274Y0029948D01*
X0315359Y0030083D01*
X0315447Y0030216D01*
X0315538Y0030347D01*
X0315633Y0030475D01*
X0315731Y0030601D01*
X0315832Y0030725D01*
X0315936Y0030845D01*
X0316043Y0030964D01*
X0316153Y0031079D01*
X0316266Y0031192D01*
X0316381Y0031302D01*
X0316500Y0031409D01*
X0316620Y0031513D01*
X0316744Y0031614D01*
X0316870Y0031712D01*
X0316998Y0031807D01*
X0317129Y0031898D01*
X0317262Y0031986D01*
X0317397Y0032071D01*
X0317534Y0032153D01*
X0317673Y0032231D01*
X0317814Y0032305D01*
X0317957Y0032376D01*
X0318102Y0032444D01*
X0318248Y0032508D01*
X0318396Y0032568D01*
X0318545Y0032624D01*
X0318695Y0032677D01*
X0318847Y0032726D01*
X0319000Y0032771D01*
X0319154Y0032812D01*
X0319309Y0032850D01*
X0319465Y0032883D01*
X0319622Y0032913D01*
X0319779Y0032939D01*
X0319937Y0032960D01*
X0320096Y0032978D01*
X0320255Y0032992D01*
X0320414Y0033002D01*
X0320573Y0033008D01*
X0320733Y0033010D01*
X0320893Y0033008D01*
X0321052Y0033002D01*
X0321211Y0032992D01*
X0321370Y0032978D01*
X0321529Y0032960D01*
X0321687Y0032939D01*
X0321844Y0032913D01*
X0322001Y0032883D01*
X0322157Y0032850D01*
X0322312Y0032812D01*
X0322466Y0032771D01*
X0322619Y0032726D01*
X0322771Y0032677D01*
X0322921Y0032624D01*
X0323070Y0032568D01*
X0323218Y0032508D01*
X0323364Y0032444D01*
X0323509Y0032376D01*
X0323652Y0032305D01*
X0323793Y0032231D01*
X0323932Y0032153D01*
X0324069Y0032071D01*
X0324204Y0031986D01*
X0324337Y0031898D01*
X0324468Y0031807D01*
X0324596Y0031712D01*
X0324722Y0031614D01*
X0324846Y0031513D01*
X0324966Y0031409D01*
X0325085Y0031302D01*
X0325200Y0031192D01*
X0325313Y0031079D01*
X0325423Y0030964D01*
X0325530Y0030845D01*
X0325634Y0030725D01*
X0325735Y0030601D01*
X0325833Y0030475D01*
X0325928Y0030347D01*
X0326019Y0030216D01*
X0326107Y0030083D01*
X0326192Y0029948D01*
X0326274Y0029811D01*
X0326352Y0029672D01*
X0326426Y0029531D01*
X0326497Y0029388D01*
X0326565Y0029243D01*
X0326629Y0029097D01*
X0326689Y0028949D01*
X0326745Y0028800D01*
X0326798Y0028650D01*
X0326847Y0028498D01*
X0326892Y0028345D01*
X0326933Y0028191D01*
X0326971Y0028036D01*
X0327004Y0027880D01*
X0327034Y0027723D01*
X0327060Y0027566D01*
X0327081Y0027408D01*
X0327099Y0027249D01*
X0327113Y0027090D01*
X0327123Y0026931D01*
X0327129Y0026772D01*
X0327131Y0026612D01*
X0327129Y0026452D01*
X0327123Y0026293D01*
X0327113Y0026134D01*
X0327099Y0025975D01*
X0327081Y0025816D01*
X0327060Y0025658D01*
X0327034Y0025501D01*
X0327004Y0025344D01*
X0326971Y0025188D01*
X0326933Y0025033D01*
X0326892Y0024879D01*
X0326847Y0024726D01*
X0326798Y0024574D01*
X0326745Y0024424D01*
X0326689Y0024275D01*
X0326629Y0024127D01*
X0326565Y0023981D01*
X0326497Y0023836D01*
X0326426Y0023693D01*
X0326352Y0023552D01*
X0326274Y0023413D01*
X0326192Y0023276D01*
X0326107Y0023141D01*
X0326019Y0023008D01*
X0325928Y0022877D01*
X0325833Y0022749D01*
X0325735Y0022623D01*
X0325634Y0022499D01*
X0325530Y0022379D01*
X0325423Y0022260D01*
X0325313Y0022145D01*
X0325200Y0022032D01*
X0325085Y0021922D01*
X0324966Y0021815D01*
X0324846Y0021711D01*
X0324722Y0021610D01*
X0324596Y0021512D01*
X0324468Y0021417D01*
X0324337Y0021326D01*
X0324204Y0021238D01*
X0324069Y0021153D01*
X0323932Y0021071D01*
X0323793Y0020993D01*
X0323652Y0020919D01*
X0323509Y0020848D01*
X0323364Y0020780D01*
X0323218Y0020716D01*
X0323070Y0020656D01*
X0322921Y0020600D01*
X0322771Y0020547D01*
X0322619Y0020498D01*
X0322466Y0020453D01*
X0322312Y0020412D01*
X0322157Y0020374D01*
X0322001Y0020341D01*
X0321844Y0020311D01*
X0321687Y0020285D01*
X0321529Y0020264D01*
X0321370Y0020246D01*
X0321211Y0020232D01*
X0321052Y0020222D01*
X0320893Y0020216D01*
X0320733Y0020214D01*
X0320573Y0020216D01*
X0320414Y0020222D01*
X0320255Y0020232D01*
X0320096Y0020246D01*
X0319937Y0020264D01*
X0319779Y0020285D01*
X0319622Y0020311D01*
X0319465Y0020341D01*
X0319309Y0020374D01*
X0319154Y0020412D01*
X0319000Y0020453D01*
X0318847Y0020498D01*
X0318695Y0020547D01*
X0318545Y0020600D01*
X0318396Y0020656D01*
X0318248Y0020716D01*
X0318102Y0020780D01*
X0317957Y0020848D01*
X0317814Y0020919D01*
X0317673Y0020993D01*
X0317534Y0021071D01*
X0317397Y0021153D01*
X0317262Y0021238D01*
X0317129Y0021326D01*
X0316998Y0021417D01*
X0316870Y0021512D01*
X0316744Y0021610D01*
X0316620Y0021711D01*
X0316500Y0021815D01*
X0316381Y0021922D01*
X0316266Y0022032D01*
X0316153Y0022145D01*
X0316043Y0022260D01*
X0315936Y0022379D01*
X0315832Y0022499D01*
X0315731Y0022623D01*
X0315633Y0022749D01*
X0315538Y0022877D01*
X0315447Y0023008D01*
X0315359Y0023141D01*
X0315274Y0023276D01*
X0315192Y0023413D01*
X0315114Y0023552D01*
X0315040Y0023693D01*
X0314969Y0023836D01*
X0314901Y0023981D01*
X0314837Y0024127D01*
X0314777Y0024275D01*
X0314721Y0024424D01*
X0314668Y0024574D01*
X0314619Y0024726D01*
X0314574Y0024879D01*
X0314533Y0025033D01*
X0314495Y0025188D01*
X0314462Y0025344D01*
X0314432Y0025501D01*
X0314406Y0025658D01*
X0314385Y0025816D01*
X0314367Y0025975D01*
X0314353Y0026134D01*
X0314343Y0026293D01*
X0314337Y0026452D01*
X0314335Y0026612D01*
X0364335Y0026612D02*
X0364337Y0026772D01*
X0364343Y0026931D01*
X0364353Y0027090D01*
X0364367Y0027249D01*
X0364385Y0027408D01*
X0364406Y0027566D01*
X0364432Y0027723D01*
X0364462Y0027880D01*
X0364495Y0028036D01*
X0364533Y0028191D01*
X0364574Y0028345D01*
X0364619Y0028498D01*
X0364668Y0028650D01*
X0364721Y0028800D01*
X0364777Y0028949D01*
X0364837Y0029097D01*
X0364901Y0029243D01*
X0364969Y0029388D01*
X0365040Y0029531D01*
X0365114Y0029672D01*
X0365192Y0029811D01*
X0365274Y0029948D01*
X0365359Y0030083D01*
X0365447Y0030216D01*
X0365538Y0030347D01*
X0365633Y0030475D01*
X0365731Y0030601D01*
X0365832Y0030725D01*
X0365936Y0030845D01*
X0366043Y0030964D01*
X0366153Y0031079D01*
X0366266Y0031192D01*
X0366381Y0031302D01*
X0366500Y0031409D01*
X0366620Y0031513D01*
X0366744Y0031614D01*
X0366870Y0031712D01*
X0366998Y0031807D01*
X0367129Y0031898D01*
X0367262Y0031986D01*
X0367397Y0032071D01*
X0367534Y0032153D01*
X0367673Y0032231D01*
X0367814Y0032305D01*
X0367957Y0032376D01*
X0368102Y0032444D01*
X0368248Y0032508D01*
X0368396Y0032568D01*
X0368545Y0032624D01*
X0368695Y0032677D01*
X0368847Y0032726D01*
X0369000Y0032771D01*
X0369154Y0032812D01*
X0369309Y0032850D01*
X0369465Y0032883D01*
X0369622Y0032913D01*
X0369779Y0032939D01*
X0369937Y0032960D01*
X0370096Y0032978D01*
X0370255Y0032992D01*
X0370414Y0033002D01*
X0370573Y0033008D01*
X0370733Y0033010D01*
X0370893Y0033008D01*
X0371052Y0033002D01*
X0371211Y0032992D01*
X0371370Y0032978D01*
X0371529Y0032960D01*
X0371687Y0032939D01*
X0371844Y0032913D01*
X0372001Y0032883D01*
X0372157Y0032850D01*
X0372312Y0032812D01*
X0372466Y0032771D01*
X0372619Y0032726D01*
X0372771Y0032677D01*
X0372921Y0032624D01*
X0373070Y0032568D01*
X0373218Y0032508D01*
X0373364Y0032444D01*
X0373509Y0032376D01*
X0373652Y0032305D01*
X0373793Y0032231D01*
X0373932Y0032153D01*
X0374069Y0032071D01*
X0374204Y0031986D01*
X0374337Y0031898D01*
X0374468Y0031807D01*
X0374596Y0031712D01*
X0374722Y0031614D01*
X0374846Y0031513D01*
X0374966Y0031409D01*
X0375085Y0031302D01*
X0375200Y0031192D01*
X0375313Y0031079D01*
X0375423Y0030964D01*
X0375530Y0030845D01*
X0375634Y0030725D01*
X0375735Y0030601D01*
X0375833Y0030475D01*
X0375928Y0030347D01*
X0376019Y0030216D01*
X0376107Y0030083D01*
X0376192Y0029948D01*
X0376274Y0029811D01*
X0376352Y0029672D01*
X0376426Y0029531D01*
X0376497Y0029388D01*
X0376565Y0029243D01*
X0376629Y0029097D01*
X0376689Y0028949D01*
X0376745Y0028800D01*
X0376798Y0028650D01*
X0376847Y0028498D01*
X0376892Y0028345D01*
X0376933Y0028191D01*
X0376971Y0028036D01*
X0377004Y0027880D01*
X0377034Y0027723D01*
X0377060Y0027566D01*
X0377081Y0027408D01*
X0377099Y0027249D01*
X0377113Y0027090D01*
X0377123Y0026931D01*
X0377129Y0026772D01*
X0377131Y0026612D01*
X0377129Y0026452D01*
X0377123Y0026293D01*
X0377113Y0026134D01*
X0377099Y0025975D01*
X0377081Y0025816D01*
X0377060Y0025658D01*
X0377034Y0025501D01*
X0377004Y0025344D01*
X0376971Y0025188D01*
X0376933Y0025033D01*
X0376892Y0024879D01*
X0376847Y0024726D01*
X0376798Y0024574D01*
X0376745Y0024424D01*
X0376689Y0024275D01*
X0376629Y0024127D01*
X0376565Y0023981D01*
X0376497Y0023836D01*
X0376426Y0023693D01*
X0376352Y0023552D01*
X0376274Y0023413D01*
X0376192Y0023276D01*
X0376107Y0023141D01*
X0376019Y0023008D01*
X0375928Y0022877D01*
X0375833Y0022749D01*
X0375735Y0022623D01*
X0375634Y0022499D01*
X0375530Y0022379D01*
X0375423Y0022260D01*
X0375313Y0022145D01*
X0375200Y0022032D01*
X0375085Y0021922D01*
X0374966Y0021815D01*
X0374846Y0021711D01*
X0374722Y0021610D01*
X0374596Y0021512D01*
X0374468Y0021417D01*
X0374337Y0021326D01*
X0374204Y0021238D01*
X0374069Y0021153D01*
X0373932Y0021071D01*
X0373793Y0020993D01*
X0373652Y0020919D01*
X0373509Y0020848D01*
X0373364Y0020780D01*
X0373218Y0020716D01*
X0373070Y0020656D01*
X0372921Y0020600D01*
X0372771Y0020547D01*
X0372619Y0020498D01*
X0372466Y0020453D01*
X0372312Y0020412D01*
X0372157Y0020374D01*
X0372001Y0020341D01*
X0371844Y0020311D01*
X0371687Y0020285D01*
X0371529Y0020264D01*
X0371370Y0020246D01*
X0371211Y0020232D01*
X0371052Y0020222D01*
X0370893Y0020216D01*
X0370733Y0020214D01*
X0370573Y0020216D01*
X0370414Y0020222D01*
X0370255Y0020232D01*
X0370096Y0020246D01*
X0369937Y0020264D01*
X0369779Y0020285D01*
X0369622Y0020311D01*
X0369465Y0020341D01*
X0369309Y0020374D01*
X0369154Y0020412D01*
X0369000Y0020453D01*
X0368847Y0020498D01*
X0368695Y0020547D01*
X0368545Y0020600D01*
X0368396Y0020656D01*
X0368248Y0020716D01*
X0368102Y0020780D01*
X0367957Y0020848D01*
X0367814Y0020919D01*
X0367673Y0020993D01*
X0367534Y0021071D01*
X0367397Y0021153D01*
X0367262Y0021238D01*
X0367129Y0021326D01*
X0366998Y0021417D01*
X0366870Y0021512D01*
X0366744Y0021610D01*
X0366620Y0021711D01*
X0366500Y0021815D01*
X0366381Y0021922D01*
X0366266Y0022032D01*
X0366153Y0022145D01*
X0366043Y0022260D01*
X0365936Y0022379D01*
X0365832Y0022499D01*
X0365731Y0022623D01*
X0365633Y0022749D01*
X0365538Y0022877D01*
X0365447Y0023008D01*
X0365359Y0023141D01*
X0365274Y0023276D01*
X0365192Y0023413D01*
X0365114Y0023552D01*
X0365040Y0023693D01*
X0364969Y0023836D01*
X0364901Y0023981D01*
X0364837Y0024127D01*
X0364777Y0024275D01*
X0364721Y0024424D01*
X0364668Y0024574D01*
X0364619Y0024726D01*
X0364574Y0024879D01*
X0364533Y0025033D01*
X0364495Y0025188D01*
X0364462Y0025344D01*
X0364432Y0025501D01*
X0364406Y0025658D01*
X0364385Y0025816D01*
X0364367Y0025975D01*
X0364353Y0026134D01*
X0364343Y0026293D01*
X0364337Y0026452D01*
X0364335Y0026612D01*
M02*
