%
M48
M72
T01C0.02400
T02C0.03937
T03C0.04000
T04C0.10827
T05C0.12795
%
T01
X99323Y116758
X93476Y125053
X88646Y123022
X92476Y132053
X78476Y120053
X75705Y130053
X67870Y126656
X49476Y121053
X33476Y121053
X17476Y121053
X48846Y151423
X53618Y156061
X63476Y167053
X77161Y164321
X89079Y179124
X91476Y187053
X100476Y200053
X131642Y183699
X114201Y169813
X107079Y170124
X116315Y149435
X127224Y149360
X110425Y120226
X65476Y145053
X39476Y163053
X39476Y178053
X33476Y184053
X33476Y199053
X33476Y208053
X38476Y209053
X27476Y240053
X12476Y240053
X76476Y241053
X94476Y241053
X197386Y234852
X257217Y197848
X278299Y213191
X296047Y183423
X285551Y181309
T02
X232429Y250754
X222429Y250754
X212429Y250754
X202429Y250754
X192429Y250754
X182429Y250754
X172429Y250754
X162429Y250754
X152429Y250754
X142429Y250754
X132429Y250754
X122429Y250754
X112429Y250754
X102429Y250754
X92429Y250754
X82429Y250754
X72429Y250754
X62429Y250754
X52429Y250754
X42429Y250754
X42429Y260754
X52429Y260754
X62429Y260754
X72429Y260754
X82429Y260754
X92429Y260754
X102429Y260754
X112429Y260754
X122429Y260754
X132429Y260754
X142429Y260754
X152429Y260754
X162429Y260754
X172429Y260754
X182429Y260754
X192429Y260754
X202429Y260754
X212429Y260754
X222429Y260754
X232429Y260754
X23130Y212695
X23130Y202695
X23000Y190876
X23000Y180876
T03
X26287Y144612
X16287Y144612
X16287Y134612
X26287Y134612
X26575Y226585
X16575Y226585
T04
X251602Y165203
X251602Y255754
X23256Y255754
X23256Y165203
T05
X308650Y194183
X308650Y244183
M30
