%
M48
M72
T01C0.01969
T02C0.03937
T03C0.10827
T04C0.12795
%
T01
X307623Y84525
X313528Y79997
X308804Y77438
X312347Y74092
X296796Y69564
X286953Y69564
X286953Y79210
X296796Y79210
X310378Y65627
X306835Y58344
X302504Y59131
X285772Y54604
X278882Y46533
X274945Y42596
X271008Y62281
X271402Y79604
X245418Y95745
X218646Y109525
X218646Y119367
X197977Y103816
X192268Y99682
X190103Y95942
X198371Y91612
X204079Y91808
X208016Y95745
X166678Y89840
X158804Y89840
X158804Y107556
X166678Y107556
X124355Y92005
X99749Y83934
X84000Y83934
X84000Y72123
X89906Y66218
X83016Y58344
X83016Y53226
X83016Y48501
X64315Y44564
X54473Y44564
X54473Y70155
X64315Y70155
X54473Y91808
X54473Y107556
X107623Y66218
X156835Y34722
X156835Y20942
X178489Y20942
X190300Y20942
X190300Y34722
X178489Y34722
X211953Y34722
X227701Y42596
X237544Y34722
X211953Y20942
X113528Y22911
X105654Y22911
X75339Y18974
X292268Y104013
X298567Y95155
X312347Y115430
X322189Y117399
X324158Y125273
X340103Y123304
X345221Y123304
X350142Y123304
X345024Y75273
X363528Y72123
X363528Y64249
X377308Y74092
T02
X213489Y114367
X223489Y114367
X213489Y124367
X223489Y124367
X233489Y124367
X243489Y124367
X253489Y124367
X263489Y124367
X273489Y124367
X273489Y114367
X263489Y114367
X253489Y114367
X243489Y114367
X233489Y114367
X203489Y114367
X193489Y114367
X183489Y114367
X173489Y114367
X153489Y114367
X143489Y114367
X133489Y114367
X123489Y114367
X113489Y114367
X103489Y114367
X93489Y114367
X83489Y114367
X83489Y124367
X93489Y124367
X103489Y124367
X113489Y124367
X123489Y124367
X133489Y124367
X143489Y124367
X153489Y124367
X163489Y124367
X173489Y124367
X183489Y124367
X193489Y124367
X203489Y124367
X163489Y114367
T03
X64315Y28816
X292662Y28816
X292662Y119367
X64315Y119367
T04
X370733Y26612
X320733Y26612
M30
