G75*
%MOIN*%
%OFA0B0*%
%FSLAX25Y25*%
%IPPOS*%
%LPD*%
%AMOC8*
5,1,8,0,0,1.08239X$1,22.5*
%
%ADD10R,0.05524X0.05524*%
%ADD11R,0.07099X0.16548*%
%ADD12R,0.04737X0.05131*%
%ADD13R,0.06706X0.05918*%
%ADD14R,0.05131X0.04737*%
%ADD15R,0.08600X0.03000*%
%ADD16R,0.09304X0.07808*%
%ADD17C,0.00436*%
%ADD18R,0.14638X0.14638*%
%ADD19R,0.12800X0.05800*%
%ADD20R,0.05524X0.06312*%
%ADD21R,0.07800X0.07800*%
%ADD22C,0.07800*%
%ADD23C,0.11627*%
%ADD24R,0.03202X0.12808*%
%ADD25R,0.10643X0.16154*%
%ADD26C,0.13595*%
%ADD27R,0.05721X0.16548*%
%ADD28R,0.07200X0.04300*%
%ADD29R,0.07200X0.13300*%
%ADD30R,0.03320X0.08320*%
%ADD31C,0.04369*%
D10*
X0244552Y0021297D03*
X0244552Y0031533D03*
X0244552Y0043383D03*
X0244552Y0053619D03*
X0268567Y0053619D03*
X0268567Y0043383D03*
X0268567Y0031533D03*
X0268567Y0021297D03*
D11*
X0099552Y0072163D03*
X0099552Y0100115D03*
D12*
X0124630Y0098265D03*
X0124630Y0104958D03*
X0123607Y0085982D03*
X0123607Y0079289D03*
X0120851Y0064958D03*
X0114158Y0064958D03*
X0094197Y0057281D03*
X0087504Y0057281D03*
X0087544Y0049210D03*
X0094237Y0049210D03*
X0094315Y0041100D03*
X0087623Y0041100D03*
X0080497Y0026533D03*
X0080497Y0019840D03*
X0256245Y0101887D03*
X0262937Y0101887D03*
X0269473Y0101178D03*
X0269473Y0094486D03*
D13*
X0088567Y0027320D03*
X0088567Y0019840D03*
D14*
X0253961Y0065706D03*
X0260654Y0065706D03*
X0292977Y0054643D03*
X0299670Y0054643D03*
X0260772Y0090706D03*
X0254079Y0090706D03*
X0277465Y0094486D03*
X0285536Y0094486D03*
X0285536Y0101178D03*
X0277465Y0101178D03*
X0305969Y0101100D03*
X0314079Y0101178D03*
X0322150Y0101178D03*
X0322150Y0094486D03*
X0314079Y0094486D03*
X0305969Y0094407D03*
X0314788Y0108029D03*
X0321481Y0108029D03*
D15*
X0076141Y0065371D03*
X0076141Y0060371D03*
X0076141Y0055371D03*
X0076141Y0050371D03*
X0056741Y0050371D03*
X0056741Y0055371D03*
X0056741Y0060371D03*
X0056741Y0065371D03*
D16*
X0058174Y0083738D03*
X0058174Y0099761D03*
D17*
X0279173Y0082876D02*
X0283237Y0082876D01*
X0283237Y0081134D01*
X0279173Y0081134D01*
X0279173Y0082876D01*
X0279173Y0081569D02*
X0283237Y0081569D01*
X0283237Y0082004D02*
X0279173Y0082004D01*
X0279173Y0082439D02*
X0283237Y0082439D01*
X0283237Y0082874D02*
X0279173Y0082874D01*
X0279173Y0080317D02*
X0283237Y0080317D01*
X0283237Y0078575D01*
X0279173Y0078575D01*
X0279173Y0080317D01*
X0279173Y0079010D02*
X0283237Y0079010D01*
X0283237Y0079445D02*
X0279173Y0079445D01*
X0279173Y0079880D02*
X0283237Y0079880D01*
X0283237Y0080315D02*
X0279173Y0080315D01*
X0279173Y0077758D02*
X0283237Y0077758D01*
X0283237Y0076016D01*
X0279173Y0076016D01*
X0279173Y0077758D01*
X0279173Y0076451D02*
X0283237Y0076451D01*
X0283237Y0076886D02*
X0279173Y0076886D01*
X0279173Y0077321D02*
X0283237Y0077321D01*
X0283237Y0077756D02*
X0279173Y0077756D01*
X0279173Y0075199D02*
X0283237Y0075199D01*
X0283237Y0073457D01*
X0279173Y0073457D01*
X0279173Y0075199D01*
X0279173Y0073892D02*
X0283237Y0073892D01*
X0283237Y0074327D02*
X0279173Y0074327D01*
X0279173Y0074762D02*
X0283237Y0074762D01*
X0283237Y0075197D02*
X0279173Y0075197D01*
X0279173Y0072640D02*
X0283237Y0072640D01*
X0283237Y0070898D01*
X0279173Y0070898D01*
X0279173Y0072640D01*
X0279173Y0071333D02*
X0283237Y0071333D01*
X0283237Y0071768D02*
X0279173Y0071768D01*
X0279173Y0072203D02*
X0283237Y0072203D01*
X0283237Y0072638D02*
X0279173Y0072638D01*
X0279173Y0070081D02*
X0283237Y0070081D01*
X0283237Y0068339D01*
X0279173Y0068339D01*
X0279173Y0070081D01*
X0279173Y0068774D02*
X0283237Y0068774D01*
X0283237Y0069209D02*
X0279173Y0069209D01*
X0279173Y0069644D02*
X0283237Y0069644D01*
X0283237Y0070079D02*
X0279173Y0070079D01*
X0279173Y0067522D02*
X0283237Y0067522D01*
X0283237Y0065780D01*
X0279173Y0065780D01*
X0279173Y0067522D01*
X0279173Y0066215D02*
X0283237Y0066215D01*
X0283237Y0066650D02*
X0279173Y0066650D01*
X0279173Y0067085D02*
X0283237Y0067085D01*
X0283237Y0067520D02*
X0279173Y0067520D01*
X0283287Y0065730D02*
X0285029Y0065730D01*
X0285029Y0061666D01*
X0283287Y0061666D01*
X0283287Y0065730D01*
X0283287Y0062101D02*
X0285029Y0062101D01*
X0285029Y0062536D02*
X0283287Y0062536D01*
X0283287Y0062971D02*
X0285029Y0062971D01*
X0285029Y0063406D02*
X0283287Y0063406D01*
X0283287Y0063841D02*
X0285029Y0063841D01*
X0285029Y0064276D02*
X0283287Y0064276D01*
X0283287Y0064711D02*
X0285029Y0064711D01*
X0285029Y0065146D02*
X0283287Y0065146D01*
X0283287Y0065581D02*
X0285029Y0065581D01*
X0285846Y0065730D02*
X0287588Y0065730D01*
X0287588Y0061666D01*
X0285846Y0061666D01*
X0285846Y0065730D01*
X0285846Y0062101D02*
X0287588Y0062101D01*
X0287588Y0062536D02*
X0285846Y0062536D01*
X0285846Y0062971D02*
X0287588Y0062971D01*
X0287588Y0063406D02*
X0285846Y0063406D01*
X0285846Y0063841D02*
X0287588Y0063841D01*
X0287588Y0064276D02*
X0285846Y0064276D01*
X0285846Y0064711D02*
X0287588Y0064711D01*
X0287588Y0065146D02*
X0285846Y0065146D01*
X0285846Y0065581D02*
X0287588Y0065581D01*
X0288405Y0065730D02*
X0290147Y0065730D01*
X0290147Y0061666D01*
X0288405Y0061666D01*
X0288405Y0065730D01*
X0288405Y0062101D02*
X0290147Y0062101D01*
X0290147Y0062536D02*
X0288405Y0062536D01*
X0288405Y0062971D02*
X0290147Y0062971D01*
X0290147Y0063406D02*
X0288405Y0063406D01*
X0288405Y0063841D02*
X0290147Y0063841D01*
X0290147Y0064276D02*
X0288405Y0064276D01*
X0288405Y0064711D02*
X0290147Y0064711D01*
X0290147Y0065146D02*
X0288405Y0065146D01*
X0288405Y0065581D02*
X0290147Y0065581D01*
X0290964Y0065730D02*
X0292706Y0065730D01*
X0292706Y0061666D01*
X0290964Y0061666D01*
X0290964Y0065730D01*
X0290964Y0062101D02*
X0292706Y0062101D01*
X0292706Y0062536D02*
X0290964Y0062536D01*
X0290964Y0062971D02*
X0292706Y0062971D01*
X0292706Y0063406D02*
X0290964Y0063406D01*
X0290964Y0063841D02*
X0292706Y0063841D01*
X0292706Y0064276D02*
X0290964Y0064276D01*
X0290964Y0064711D02*
X0292706Y0064711D01*
X0292706Y0065146D02*
X0290964Y0065146D01*
X0290964Y0065581D02*
X0292706Y0065581D01*
X0293523Y0065730D02*
X0295265Y0065730D01*
X0295265Y0061666D01*
X0293523Y0061666D01*
X0293523Y0065730D01*
X0293523Y0062101D02*
X0295265Y0062101D01*
X0295265Y0062536D02*
X0293523Y0062536D01*
X0293523Y0062971D02*
X0295265Y0062971D01*
X0295265Y0063406D02*
X0293523Y0063406D01*
X0293523Y0063841D02*
X0295265Y0063841D01*
X0295265Y0064276D02*
X0293523Y0064276D01*
X0293523Y0064711D02*
X0295265Y0064711D01*
X0295265Y0065146D02*
X0293523Y0065146D01*
X0293523Y0065581D02*
X0295265Y0065581D01*
X0296082Y0065730D02*
X0297824Y0065730D01*
X0297824Y0061666D01*
X0296082Y0061666D01*
X0296082Y0065730D01*
X0296082Y0062101D02*
X0297824Y0062101D01*
X0297824Y0062536D02*
X0296082Y0062536D01*
X0296082Y0062971D02*
X0297824Y0062971D01*
X0297824Y0063406D02*
X0296082Y0063406D01*
X0296082Y0063841D02*
X0297824Y0063841D01*
X0297824Y0064276D02*
X0296082Y0064276D01*
X0296082Y0064711D02*
X0297824Y0064711D01*
X0297824Y0065146D02*
X0296082Y0065146D01*
X0296082Y0065581D02*
X0297824Y0065581D01*
X0298641Y0065730D02*
X0300383Y0065730D01*
X0300383Y0061666D01*
X0298641Y0061666D01*
X0298641Y0065730D01*
X0298641Y0062101D02*
X0300383Y0062101D01*
X0300383Y0062536D02*
X0298641Y0062536D01*
X0298641Y0062971D02*
X0300383Y0062971D01*
X0300383Y0063406D02*
X0298641Y0063406D01*
X0298641Y0063841D02*
X0300383Y0063841D01*
X0300383Y0064276D02*
X0298641Y0064276D01*
X0298641Y0064711D02*
X0300383Y0064711D01*
X0300383Y0065146D02*
X0298641Y0065146D01*
X0298641Y0065581D02*
X0300383Y0065581D01*
X0300433Y0067522D02*
X0304497Y0067522D01*
X0304497Y0065780D01*
X0300433Y0065780D01*
X0300433Y0067522D01*
X0300433Y0066215D02*
X0304497Y0066215D01*
X0304497Y0066650D02*
X0300433Y0066650D01*
X0300433Y0067085D02*
X0304497Y0067085D01*
X0304497Y0067520D02*
X0300433Y0067520D01*
X0300433Y0070081D02*
X0304497Y0070081D01*
X0304497Y0068339D01*
X0300433Y0068339D01*
X0300433Y0070081D01*
X0300433Y0068774D02*
X0304497Y0068774D01*
X0304497Y0069209D02*
X0300433Y0069209D01*
X0300433Y0069644D02*
X0304497Y0069644D01*
X0304497Y0070079D02*
X0300433Y0070079D01*
X0300433Y0072640D02*
X0304497Y0072640D01*
X0304497Y0070898D01*
X0300433Y0070898D01*
X0300433Y0072640D01*
X0300433Y0071333D02*
X0304497Y0071333D01*
X0304497Y0071768D02*
X0300433Y0071768D01*
X0300433Y0072203D02*
X0304497Y0072203D01*
X0304497Y0072638D02*
X0300433Y0072638D01*
X0300433Y0075199D02*
X0304497Y0075199D01*
X0304497Y0073457D01*
X0300433Y0073457D01*
X0300433Y0075199D01*
X0300433Y0073892D02*
X0304497Y0073892D01*
X0304497Y0074327D02*
X0300433Y0074327D01*
X0300433Y0074762D02*
X0304497Y0074762D01*
X0304497Y0075197D02*
X0300433Y0075197D01*
X0300433Y0077758D02*
X0304497Y0077758D01*
X0304497Y0076016D01*
X0300433Y0076016D01*
X0300433Y0077758D01*
X0300433Y0076451D02*
X0304497Y0076451D01*
X0304497Y0076886D02*
X0300433Y0076886D01*
X0300433Y0077321D02*
X0304497Y0077321D01*
X0304497Y0077756D02*
X0300433Y0077756D01*
X0300433Y0080317D02*
X0304497Y0080317D01*
X0304497Y0078575D01*
X0300433Y0078575D01*
X0300433Y0080317D01*
X0300433Y0079010D02*
X0304497Y0079010D01*
X0304497Y0079445D02*
X0300433Y0079445D01*
X0300433Y0079880D02*
X0304497Y0079880D01*
X0304497Y0080315D02*
X0300433Y0080315D01*
X0300433Y0082876D02*
X0304497Y0082876D01*
X0304497Y0081134D01*
X0300433Y0081134D01*
X0300433Y0082876D01*
X0300433Y0081569D02*
X0304497Y0081569D01*
X0304497Y0082004D02*
X0300433Y0082004D01*
X0300433Y0082439D02*
X0304497Y0082439D01*
X0304497Y0082874D02*
X0300433Y0082874D01*
X0300383Y0086990D02*
X0298641Y0086990D01*
X0300383Y0086990D02*
X0300383Y0082926D01*
X0298641Y0082926D01*
X0298641Y0086990D01*
X0298641Y0083361D02*
X0300383Y0083361D01*
X0300383Y0083796D02*
X0298641Y0083796D01*
X0298641Y0084231D02*
X0300383Y0084231D01*
X0300383Y0084666D02*
X0298641Y0084666D01*
X0298641Y0085101D02*
X0300383Y0085101D01*
X0300383Y0085536D02*
X0298641Y0085536D01*
X0298641Y0085971D02*
X0300383Y0085971D01*
X0300383Y0086406D02*
X0298641Y0086406D01*
X0298641Y0086841D02*
X0300383Y0086841D01*
X0297824Y0086990D02*
X0296082Y0086990D01*
X0297824Y0086990D02*
X0297824Y0082926D01*
X0296082Y0082926D01*
X0296082Y0086990D01*
X0296082Y0083361D02*
X0297824Y0083361D01*
X0297824Y0083796D02*
X0296082Y0083796D01*
X0296082Y0084231D02*
X0297824Y0084231D01*
X0297824Y0084666D02*
X0296082Y0084666D01*
X0296082Y0085101D02*
X0297824Y0085101D01*
X0297824Y0085536D02*
X0296082Y0085536D01*
X0296082Y0085971D02*
X0297824Y0085971D01*
X0297824Y0086406D02*
X0296082Y0086406D01*
X0296082Y0086841D02*
X0297824Y0086841D01*
X0295265Y0086990D02*
X0293523Y0086990D01*
X0295265Y0086990D02*
X0295265Y0082926D01*
X0293523Y0082926D01*
X0293523Y0086990D01*
X0293523Y0083361D02*
X0295265Y0083361D01*
X0295265Y0083796D02*
X0293523Y0083796D01*
X0293523Y0084231D02*
X0295265Y0084231D01*
X0295265Y0084666D02*
X0293523Y0084666D01*
X0293523Y0085101D02*
X0295265Y0085101D01*
X0295265Y0085536D02*
X0293523Y0085536D01*
X0293523Y0085971D02*
X0295265Y0085971D01*
X0295265Y0086406D02*
X0293523Y0086406D01*
X0293523Y0086841D02*
X0295265Y0086841D01*
X0292706Y0086990D02*
X0290964Y0086990D01*
X0292706Y0086990D02*
X0292706Y0082926D01*
X0290964Y0082926D01*
X0290964Y0086990D01*
X0290964Y0083361D02*
X0292706Y0083361D01*
X0292706Y0083796D02*
X0290964Y0083796D01*
X0290964Y0084231D02*
X0292706Y0084231D01*
X0292706Y0084666D02*
X0290964Y0084666D01*
X0290964Y0085101D02*
X0292706Y0085101D01*
X0292706Y0085536D02*
X0290964Y0085536D01*
X0290964Y0085971D02*
X0292706Y0085971D01*
X0292706Y0086406D02*
X0290964Y0086406D01*
X0290964Y0086841D02*
X0292706Y0086841D01*
X0290147Y0086990D02*
X0288405Y0086990D01*
X0290147Y0086990D02*
X0290147Y0082926D01*
X0288405Y0082926D01*
X0288405Y0086990D01*
X0288405Y0083361D02*
X0290147Y0083361D01*
X0290147Y0083796D02*
X0288405Y0083796D01*
X0288405Y0084231D02*
X0290147Y0084231D01*
X0290147Y0084666D02*
X0288405Y0084666D01*
X0288405Y0085101D02*
X0290147Y0085101D01*
X0290147Y0085536D02*
X0288405Y0085536D01*
X0288405Y0085971D02*
X0290147Y0085971D01*
X0290147Y0086406D02*
X0288405Y0086406D01*
X0288405Y0086841D02*
X0290147Y0086841D01*
X0287588Y0086990D02*
X0285846Y0086990D01*
X0287588Y0086990D02*
X0287588Y0082926D01*
X0285846Y0082926D01*
X0285846Y0086990D01*
X0285846Y0083361D02*
X0287588Y0083361D01*
X0287588Y0083796D02*
X0285846Y0083796D01*
X0285846Y0084231D02*
X0287588Y0084231D01*
X0287588Y0084666D02*
X0285846Y0084666D01*
X0285846Y0085101D02*
X0287588Y0085101D01*
X0287588Y0085536D02*
X0285846Y0085536D01*
X0285846Y0085971D02*
X0287588Y0085971D01*
X0287588Y0086406D02*
X0285846Y0086406D01*
X0285846Y0086841D02*
X0287588Y0086841D01*
X0285029Y0086990D02*
X0283287Y0086990D01*
X0285029Y0086990D02*
X0285029Y0082926D01*
X0283287Y0082926D01*
X0283287Y0086990D01*
X0283287Y0083361D02*
X0285029Y0083361D01*
X0285029Y0083796D02*
X0283287Y0083796D01*
X0283287Y0084231D02*
X0285029Y0084231D01*
X0285029Y0084666D02*
X0283287Y0084666D01*
X0283287Y0085101D02*
X0285029Y0085101D01*
X0285029Y0085536D02*
X0283287Y0085536D01*
X0283287Y0085971D02*
X0285029Y0085971D01*
X0285029Y0086406D02*
X0283287Y0086406D01*
X0283287Y0086841D02*
X0285029Y0086841D01*
D18*
X0291835Y0074328D03*
D19*
X0074394Y0083230D03*
X0074394Y0100230D03*
D20*
X0254079Y0082360D03*
X0260378Y0082360D03*
X0260378Y0073698D03*
X0254079Y0073698D03*
D21*
X0083489Y0114367D03*
D22*
X0093489Y0114367D03*
X0103489Y0114367D03*
X0113489Y0114367D03*
X0123489Y0114367D03*
X0133489Y0114367D03*
X0143489Y0114367D03*
X0153489Y0114367D03*
X0163489Y0114367D03*
X0173489Y0114367D03*
X0183489Y0114367D03*
X0193489Y0114367D03*
X0203489Y0114367D03*
X0213489Y0114367D03*
X0223489Y0114367D03*
X0233489Y0114367D03*
X0243489Y0114367D03*
X0253489Y0114367D03*
X0263489Y0114367D03*
X0273489Y0114367D03*
X0273489Y0124367D03*
X0263489Y0124367D03*
X0253489Y0124367D03*
X0243489Y0124367D03*
X0233489Y0124367D03*
X0223489Y0124367D03*
X0213489Y0124367D03*
X0203489Y0124367D03*
X0193489Y0124367D03*
X0183489Y0124367D03*
X0173489Y0124367D03*
X0163489Y0124367D03*
X0153489Y0124367D03*
X0143489Y0124367D03*
X0133489Y0124367D03*
X0123489Y0124367D03*
X0113489Y0124367D03*
X0103489Y0124367D03*
X0093489Y0124367D03*
X0083489Y0124367D03*
D23*
X0064315Y0028816D03*
X0064315Y0119367D03*
X0292662Y0119367D03*
X0292662Y0028816D03*
D24*
X0331678Y0065903D03*
X0335693Y0065903D03*
X0339815Y0065903D03*
X0343760Y0065903D03*
X0347705Y0065903D03*
X0351756Y0065903D03*
X0355772Y0065903D03*
X0359788Y0065903D03*
D25*
X0379827Y0026572D03*
X0311638Y0026572D03*
D26*
X0320733Y0026612D03*
X0370733Y0026612D03*
D27*
X0229394Y0026848D03*
X0219394Y0026848D03*
X0149394Y0026848D03*
X0139394Y0026848D03*
X0139394Y0097714D03*
X0149394Y0097714D03*
X0219394Y0097714D03*
X0229394Y0097714D03*
D28*
X0122191Y0037916D03*
X0122191Y0028816D03*
X0122191Y0019716D03*
D29*
X0096991Y0028816D03*
D30*
X0340123Y0082419D03*
X0345123Y0082419D03*
X0350123Y0082419D03*
X0355123Y0082419D03*
X0360123Y0082419D03*
X0365123Y0082419D03*
X0370123Y0082419D03*
X0375123Y0082419D03*
X0375123Y0116946D03*
X0370123Y0116946D03*
X0365123Y0116946D03*
X0360123Y0116946D03*
X0355123Y0116946D03*
X0350123Y0116946D03*
X0345123Y0116946D03*
X0340123Y0116946D03*
D31*
X0340103Y0123304D03*
X0345221Y0123304D03*
X0350142Y0123304D03*
X0324158Y0125273D03*
X0322189Y0117399D03*
X0312347Y0115430D03*
X0292268Y0104013D03*
X0298567Y0095155D03*
X0307623Y0084525D03*
X0313528Y0079997D03*
X0308804Y0077438D03*
X0312347Y0074092D03*
X0310378Y0065627D03*
X0306835Y0058344D03*
X0302504Y0059131D03*
X0285772Y0054604D03*
X0278882Y0046533D03*
X0274945Y0042596D03*
X0271008Y0062281D03*
X0286953Y0069564D03*
X0296796Y0069564D03*
X0296796Y0079210D03*
X0286953Y0079210D03*
X0271402Y0079604D03*
X0245418Y0095745D03*
X0218646Y0109525D03*
X0218646Y0119367D03*
X0197977Y0103816D03*
X0192268Y0099682D03*
X0190103Y0095942D03*
X0198371Y0091612D03*
X0204079Y0091808D03*
X0208016Y0095745D03*
X0166678Y0089840D03*
X0158804Y0089840D03*
X0158804Y0107556D03*
X0166678Y0107556D03*
X0124355Y0092005D03*
X0099749Y0083934D03*
X0084000Y0083934D03*
X0084000Y0072123D03*
X0089906Y0066218D03*
X0083016Y0058344D03*
X0083016Y0053226D03*
X0083016Y0048501D03*
X0064315Y0044564D03*
X0054473Y0044564D03*
X0054473Y0070155D03*
X0064315Y0070155D03*
X0054473Y0091808D03*
X0054473Y0107556D03*
X0107623Y0066218D03*
X0156835Y0034722D03*
X0156835Y0020942D03*
X0178489Y0020942D03*
X0190300Y0020942D03*
X0211953Y0020942D03*
X0211953Y0034722D03*
X0227701Y0042596D03*
X0237544Y0034722D03*
X0190300Y0034722D03*
X0178489Y0034722D03*
X0113528Y0022911D03*
X0105654Y0022911D03*
X0075339Y0018974D03*
X0345024Y0075273D03*
X0363528Y0072123D03*
X0363528Y0064249D03*
X0377308Y0074092D03*
M02*
